<svg width="745" height="220" viewBox="0 0 745 220" fill="none" xmlns="http://www.w3.org/2000/svg">
<path d="M357.005 51.0215L322.621 52.3224V129.799C317.638 132.184 312.655 133.558 307.672 133.485C300.055 133.485 293.933 127.198 293.933 119.464V53.6956C293.933 52.0333 292.58 50.7324 290.943 50.8046L252.074 52.2501V128.354C252.074 156.757 267.237 170.778 291.228 170.778C303.258 170.778 313.723 167.309 322.55 160.154V168.104H364.337V58.2488C364.409 54.1292 361.063 50.8769 357.005 51.0215Z" fill="#D9FF9C"/>
<path d="M414.883 62.6646V54.4977C414.883 52.474 413.174 50.8117 411.181 50.884L373.096 52.3295V168.256H414.883V93.1639C421.147 89.9839 428.48 88.3939 436.809 88.3939C442.575 88.3939 446.989 89.1889 450.121 90.7789L451.687 49.9445C449.623 49.1494 447.273 48.8604 444.853 48.8604C434.175 48.8604 423.995 53.4136 414.883 62.6646Z" fill="#D9FF9C"/>
<path d="M495.82 50.8793L457.734 52.3248V168.251H499.522V54.493C499.522 52.3971 497.884 50.807 495.82 50.8793Z" fill="#D9FF9C"/>
<path d="M621.535 168.256V91.2848C621.535 62.8814 606.372 48.8604 582.311 48.8604C570.066 48.8604 559.032 52.5463 549.92 59.7014V54.4254C549.92 52.4017 548.283 50.7395 546.218 50.8117L508.133 52.2572V168.184H549.92V90.273C555.259 87.5989 560.598 86.2257 566.222 86.298C573.697 86.3702 579.677 92.5135 579.677 100.102V168.256H621.535Z" fill="#D9FF9C"/>
<path d="M662.827 91.0643C662.827 82.6083 668.308 76.7542 677.705 76.7542C687.102 76.7542 692.583 82.6083 692.583 91.0643C692.583 99.5925 686.817 105.158 677.705 105.158C668.308 105.085 662.827 99.5203 662.827 91.0643ZM693.651 139.054C686.603 139.054 679.769 139.56 672.722 140.355L681.051 132.911C711.59 131.826 730.455 116.432 730.455 90.992C730.455 86.5111 729.957 82.536 728.889 78.7778H740.635V47.0498L699.417 51.8198C692.868 49.9407 685.607 48.9289 677.705 48.9289C645.03 48.9289 624.955 64.8291 624.955 91.1366C624.955 111.301 636.985 126.406 658.627 130.887L641.684 145.992V170.276C641.684 172.516 643.677 174.251 645.813 173.817C656.277 171.938 668.664 170.926 682.688 170.926C701.268 170.926 705.682 172.516 705.682 178.081C705.682 184.152 701.766 186.031 684.752 186.031C673.006 186.031 661.26 184.441 649.23 181.551C637.484 178.66 630.151 176.13 624.955 172.155L620.541 207.28C634.138 215.808 654.782 220 682.19 220C723.977 220 744.123 203.522 744.123 177.286C744.123 152.858 726.041 139.054 693.651 139.054Z" fill="#D9FF9C"/>
<path d="M479.167 1.01465C466.353 1.01465 456.672 10.0488 456.672 22.4798C456.672 35.2 466.353 44.5232 479.167 44.5232C491.696 44.5232 500.595 35.2722 500.595 22.4798C500.595 10.0488 491.696 1.01465 479.167 1.01465Z" fill="#D9FF9C"/>
<path d="M133.267 68.0789C145.796 68.0789 154.694 58.8279 154.694 46.0355C154.694 33.6045 145.796 24.5703 133.267 24.5703C120.453 24.5703 110.771 33.6045 110.771 46.0355C110.771 58.7556 120.453 68.0789 133.267 68.0789Z" fill="#D9FF9C"/>
<path d="M241.327 132.116C238.622 133.344 235.774 133.995 232.784 133.995C223.103 133.995 218.404 130.309 218.404 120.697C218.404 120.697 218.404 95.5454 218.404 77.8384C228.015 73.9357 237.412 69.6715 246.595 65.2629V52.9041C237.483 55.9396 227.944 58.6137 218.404 60.9987V22.9829C218.404 21.1761 216.767 19.8029 214.987 20.1643L210.574 21.1038L176.546 28.3312C176.546 28.3312 176.617 50.8082 176.617 59.7701V65.7688V65.841V70.5388C140.81 77.6939 108.704 74.8752 76.527 66.636V57.1682C76.527 47.1222 82.2932 42.0631 93.7544 42.0631C94.2527 42.0631 94.751 42.0631 95.1782 42.0631C98.1681 42.1354 100.588 42.6413 102.368 43.364L113.901 4.91459C109.131 2.89093 104.361 1.66229 99.663 0.867281C99.5206 0.867281 99.4494 0.795007 99.3071 0.795007C97.0291 0.43364 94.6799 0.21682 92.473 0.0722734C92.1171 0.0722734 91.8323 0.0722734 91.4764 0C90.6222 0 89.6967 0 88.7713 0C86.7068 0 84.6424 0.0722734 82.7203 0.21682H82.6491C78.449 0.578187 74.3913 1.22865 70.6184 2.02365H70.5472C47.9094 7.5887 34.7397 22.8384 34.7397 49.9409V51.6032C34.7397 51.6032 34.7397 52.3259 34.7397 53.6268C27.4785 51.025 20.075 48.2063 12.6003 45.2431L0 86.2221C11.5324 89.0408 23.0649 91.7872 34.7397 94.1722V168.252H76.527V100.966C87.8458 102.195 99.3071 102.845 110.768 102.628V168.252H152.556V98.2195C160.6 96.6295 168.644 94.7504 176.617 92.5099V125.322C176.617 155.821 191.78 170.927 222.106 170.927C233.069 170.927 241.968 169.047 248.517 165.072L246.951 129.514L241.327 132.116Z" fill="#D9FF9C"/>
</svg>
