<svg width="259" height="85" viewBox="0 0 259 85" fill="none" xmlns="http://www.w3.org/2000/svg">
<g clip-path="url(#clip0_4447_1873)">
<mask id="mask0_4447_1873" style="mask-type:luminance" maskUnits="userSpaceOnUse" x="0" y="0" width="259" height="77">
<path d="M258.432 0.756866H0.0429688V76.5984H258.432V0.756866Z" fill="white"/>
</mask>
<g mask="url(#mask0_4447_1873)">
<path d="M252.172 1.80969H5.31025C4.75642 1.80969 4.20802 1.91879 3.69637 2.13076C3.18471 2.34273 2.71983 2.65341 2.32828 3.04507C1.93672 3.43672 1.62617 3.90167 1.41434 4.41336C1.20252 4.92505 1.09358 5.47346 1.09375 6.02725V71.3281C1.09358 71.8819 1.20252 72.4303 1.41434 72.942C1.62617 73.4537 1.93672 73.9186 2.32828 74.3103C2.71983 74.7019 3.18471 75.0126 3.69637 75.2246C4.20802 75.4366 4.75642 75.5457 5.31025 75.5457H252.172C252.726 75.546 253.274 75.4373 253.786 75.2257C254.297 75.0141 254.762 74.7038 255.154 74.3126C255.546 73.9213 255.857 73.4567 256.069 72.9453C256.281 72.4338 256.391 71.8856 256.391 71.3319V6.02725C256.391 5.47324 256.282 4.92462 256.07 4.41277C255.858 3.90091 255.547 3.43584 255.156 3.04416C254.764 2.65247 254.299 2.34184 253.787 2.13002C253.275 1.91821 252.726 1.80936 252.172 1.80969Z" stroke="white" stroke-width="2.57103"/>
<path d="M61.0036 36.9046C61.0271 35.1332 61.4993 33.3967 62.376 31.8573C63.2528 30.3179 64.5055 29.0259 66.017 28.102C65.0561 26.7323 63.7887 25.6059 62.3159 24.8121C60.843 24.0184 59.2052 23.5792 57.5327 23.5297C53.9629 23.1582 50.5101 25.6596 48.6898 25.6596C46.8413 25.6596 44.0428 23.5683 41.0206 23.6274C39.0725 23.6888 37.1735 24.254 35.5089 25.2677C33.8442 26.2815 32.4706 27.7092 31.522 29.4118C27.4085 36.5138 30.4756 46.9476 34.417 52.6922C36.3825 55.506 38.6822 58.6424 41.6942 58.5345C44.6379 58.4175 45.7435 56.659 49.294 56.659C52.815 56.659 53.8524 58.5345 56.9234 58.4663C60.0832 58.4175 62.0783 55.6384 63.9757 52.8104C65.389 50.8082 66.4783 48.5958 67.2035 46.2548C65.3715 45.4696 63.8088 44.1665 62.7074 42.5054C61.6059 40.8443 61.0137 38.8976 61.0036 36.9046ZM55.2021 19.7492C56.9265 17.6838 57.7757 15.0265 57.5687 12.3439C54.9357 12.6161 52.5025 13.8722 50.7556 15.8608C49.9029 16.8324 49.2503 17.9627 48.8352 19.1869C48.42 20.4111 48.2505 21.7051 48.3363 22.995C49.6512 23.0051 50.9514 22.7186 52.1401 22.1566C53.3289 21.5947 54.3755 20.7718 55.2021 19.7492Z" fill="white"/>
<path d="M103.671 58.1149H99.5573L97.2974 51.0449H89.4557L87.3038 58.1149H83.293L91.0601 34.023H95.8538L103.671 58.1149ZM96.6186 48.0716L94.5747 41.7794C94.36 41.1366 93.9486 39.6198 93.3624 37.2366H93.2943C93.059 38.2649 92.6682 39.7766 92.1502 41.7794L90.1448 48.0716H96.6186ZM123.607 49.2144C123.745 51.7732 122.882 54.2853 121.2 56.2188C120.521 56.9588 119.691 57.5454 118.766 57.9395C117.842 58.3336 116.844 58.5262 115.84 58.5043C114.866 58.5846 113.889 58.3978 113.013 57.9641C112.138 57.5303 111.397 56.866 110.871 56.0427V65.1578H107.007V46.4507C107.007 44.5945 106.958 42.6895 106.86 40.7446H110.263L110.479 43.4993H110.546C111.131 42.6024 111.918 41.8546 112.844 41.3157C113.769 40.7767 114.808 40.4615 115.877 40.395C116.946 40.3286 118.016 40.5129 119.001 40.9331C119.986 41.3533 120.859 41.9979 121.551 42.8154C122.986 44.6321 123.716 46.906 123.607 49.2183V49.2144ZM119.674 49.3609C119.735 47.8823 119.335 46.4214 118.53 45.1794C118.157 44.6361 117.653 44.195 117.065 43.8964C116.477 43.5978 115.824 43.4511 115.165 43.4697C114.216 43.4715 113.298 43.8069 112.572 44.4171C111.8 45.0506 111.265 45.9276 111.056 46.9044C110.949 47.2864 110.89 47.6802 110.88 48.0768V50.978C110.852 52.1547 111.268 53.2988 112.045 54.1827C112.421 54.6106 112.887 54.95 113.409 55.1765C113.932 55.403 114.498 55.5109 115.067 55.4925C115.729 55.5177 116.388 55.3772 116.982 55.0838C117.576 54.7905 118.088 54.3535 118.471 53.8124C119.324 52.4896 119.744 50.9332 119.674 49.3609ZM143.62 49.2144C143.759 51.7733 142.896 54.2857 141.213 56.2188C140.534 56.9587 139.704 57.5452 138.78 57.9393C137.856 58.3334 136.858 58.526 135.854 58.5043C134.88 58.5847 133.903 58.398 133.027 57.9642C132.151 57.5305 131.41 56.8661 130.884 56.0427V65.1578H127.02V46.4507C127.02 44.5945 126.971 42.6895 126.873 40.7446H130.277L130.493 43.4993H130.561C131.147 42.6024 131.933 41.8547 132.859 41.3157C133.784 40.7767 134.823 40.4615 135.892 40.395C136.961 40.3286 138.03 40.5129 139.015 40.9331C140 41.3533 140.874 41.9979 141.565 42.8154C142.996 44.634 143.726 46.9066 143.62 49.2183V49.2144ZM139.678 49.3609C139.739 47.8821 139.338 46.4211 138.533 45.1794C138.16 44.636 137.656 44.1949 137.069 43.8962C136.481 43.5976 135.828 43.451 135.169 43.4697C134.217 43.4732 133.297 43.8082 132.566 44.4171C131.795 45.0495 131.261 45.9245 131.051 46.8993C130.945 47.2817 130.882 47.675 130.865 48.0716V50.9729C130.837 52.1492 131.252 53.2931 132.028 54.1775C132.406 54.6066 132.873 54.9466 133.398 55.1731C133.923 55.3996 134.491 55.5069 135.062 55.4874C135.724 55.5123 136.382 55.3717 136.976 55.0784C137.57 54.785 138.082 54.3482 138.465 53.8073C139.329 52.4912 139.754 50.9337 139.678 49.3609ZM165.992 51.3637C166.023 52.3035 165.848 53.2389 165.478 54.1033C165.107 54.9677 164.551 55.74 163.849 56.3654C162 57.868 159.654 58.6213 157.276 58.4761C155.091 58.5808 152.922 58.059 151.024 56.9721L151.915 53.7585C153.604 54.7614 155.536 55.2817 157.501 55.2624C158.715 55.3345 159.917 54.9858 160.905 54.2752C161.3 53.9636 161.617 53.5635 161.829 53.1071C162.041 52.6507 162.144 52.1508 162.127 51.6478C162.136 51.1889 162.051 50.7332 161.877 50.3083C161.704 49.8833 161.446 49.4981 161.119 49.1758C160.152 48.3323 159.02 47.7 157.794 47.3196C153.568 45.7471 151.455 43.4479 151.455 40.4219C151.432 39.4952 151.622 38.5755 152.011 37.7338C152.399 36.8921 152.976 36.1507 153.696 35.5668C155.377 34.2389 157.483 33.5653 159.623 33.6707C161.514 33.6051 163.394 33.9972 165.101 34.8135L164.133 37.959C162.705 37.2045 161.11 36.8245 159.496 36.8548C158.344 36.7857 157.206 37.14 156.296 37.851C155.987 38.1228 155.741 38.4582 155.573 38.8344C155.406 39.2105 155.323 39.6183 155.328 40.0299C155.32 40.4818 155.417 40.9295 155.61 41.338C155.804 41.7465 156.089 42.1048 156.444 42.3848C157.506 43.1844 158.688 43.8109 159.946 44.241C161.678 44.852 163.245 45.8551 164.525 47.1718C165.518 48.3385 166.041 49.8322 165.992 51.3637ZM178.806 43.651H174.54V52.0822C174.54 54.2315 175.294 55.2959 176.8 55.2959C177.379 55.3079 177.957 55.2487 178.522 55.1198L178.63 58.0506C177.661 58.3669 176.645 58.5122 175.627 58.4799C174.965 58.5161 174.303 58.4101 173.685 58.1691C173.068 57.928 172.509 57.5576 172.046 57.0826C171.056 55.7341 170.596 54.0681 170.754 52.4023V43.6484H168.222V40.7561H170.754V37.5695L174.551 36.4267V40.7549H178.815L178.806 43.651ZM197.987 49.298C198.082 51.7 197.265 54.0492 195.699 55.873C194.895 56.753 193.909 57.4461 192.808 57.9036C191.708 58.3611 190.521 58.5719 189.33 58.5211C188.19 58.5702 187.053 58.3692 185.998 57.9322C184.944 57.4952 183.998 56.8327 183.227 55.9913C181.685 54.2238 180.874 51.936 180.958 49.5923C180.861 47.168 181.702 44.7996 183.305 42.9787C184.108 42.1172 185.09 41.441 186.181 40.9971C187.272 40.5531 188.447 40.352 189.623 40.4078C190.772 40.3608 191.917 40.5636 192.979 41.0022C194.041 41.4407 194.996 42.1045 195.777 42.9478C197.292 44.706 198.082 46.9741 197.987 49.2928V49.298ZM193.977 49.3854C194.02 47.951 193.661 46.5334 192.94 45.2925C192.612 44.6578 192.114 44.1275 191.5 43.7615C190.887 43.3955 190.183 43.2085 189.469 43.2216C188.744 43.2012 188.028 43.3844 187.402 43.7505C186.776 44.1165 186.265 44.6507 185.927 45.2925C185.202 46.5602 184.844 48.0042 184.891 49.4638C184.85 50.9011 185.208 52.3217 185.927 53.5669C186.27 54.1961 186.776 54.7208 187.392 55.0855C188.009 55.4501 188.713 55.6411 189.429 55.6381C190.145 55.635 190.847 55.4381 191.461 55.0683C192.074 54.6984 192.576 54.1694 192.913 53.5374C193.646 52.2775 194.015 50.8387 193.977 49.3815V49.3854ZM210.56 44.1484C210.156 44.0782 209.747 44.0421 209.337 44.0405C208.725 44.0118 208.116 44.1372 207.566 44.4052C207.016 44.6731 206.542 45.075 206.187 45.574C205.511 46.5866 205.172 47.787 205.219 49.0036V58.1187H201.351V46.2154C201.351 44.3888 201.321 42.5712 201.243 40.7446H204.609L204.745 44.0662H204.853C205.219 42.9803 205.892 42.0235 206.79 41.3115C207.597 40.7067 208.579 40.3809 209.587 40.3834C209.912 40.3842 210.235 40.4069 210.557 40.4515L210.56 44.1484ZM227.844 48.6128C227.852 49.1985 227.807 49.7837 227.708 50.361H216.106C216.08 51.1007 216.217 51.8371 216.508 52.5177C216.799 53.1983 217.236 53.8063 217.789 54.2984C218.869 55.1422 220.215 55.5718 221.584 55.5092C223.187 55.5305 224.779 55.2524 226.28 54.6891L226.887 57.3654C225.037 58.1193 223.052 58.485 221.055 58.4401C219.889 58.5043 218.722 58.3265 217.628 57.9179C216.534 57.5093 215.536 56.8787 214.697 56.0658C213.908 55.2091 213.296 54.2038 212.899 53.1085C212.502 52.0132 212.327 50.8499 212.383 49.6862C212.297 47.3201 213.061 45.0013 214.537 43.1496C215.261 42.2408 216.189 41.5152 217.246 41.0315C218.303 40.5478 219.459 40.3196 220.621 40.3654C221.729 40.3045 222.833 40.5284 223.83 41.0158C224.826 41.5033 225.681 42.2379 226.313 43.1496C227.369 44.7702 227.903 46.6757 227.842 48.609L227.844 48.6128ZM224.156 47.6166C224.21 46.5733 223.948 45.538 223.404 44.6459C223.084 44.1228 222.628 43.6965 222.085 43.4126C221.541 43.1286 220.931 42.9978 220.319 43.034C219.715 43.0248 219.119 43.1634 218.581 43.4377C218.043 43.7119 217.581 44.1135 217.234 44.6073C216.575 45.4777 216.178 46.5181 216.089 47.6063L224.156 47.6166Z" fill="white"/>
<path d="M88.3425 25.5139C87.4146 25.5202 86.4872 25.4747 85.5645 25.3777V13.7219C86.6484 13.5528 87.7442 13.4711 88.8412 13.4776C93.2724 13.4776 95.3164 15.6566 95.3164 19.2033C95.3074 23.2964 92.9009 25.5139 88.3425 25.5139ZM88.9981 14.9727C88.4864 14.9641 87.9752 15.0072 87.4722 15.1012V23.9533C87.8991 23.9982 88.3286 24.0145 88.7577 24.0022C91.6629 24.0022 93.3161 22.3516 93.3161 19.2638C93.3839 18.6813 93.3186 18.0911 93.1251 17.5376C92.9316 16.9841 92.615 16.4817 92.1991 16.0684C91.7831 15.6551 91.2788 15.3416 90.7241 15.1516C90.1694 14.9615 89.5788 14.8999 88.9968 14.9714L88.9981 14.9727ZM101.676 25.6026C101.109 25.6102 100.547 25.4993 100.026 25.2773C99.5045 25.0552 99.0352 24.7267 98.648 24.3129C98.2608 23.8991 97.9643 23.4091 97.7773 22.8741C97.5903 22.3392 97.5171 21.7711 97.5622 21.2062C97.5118 20.6227 97.5853 20.0352 97.7778 19.4821C97.9702 18.929 98.2774 18.4228 98.6791 17.9967C99.0809 17.5706 99.5681 17.2341 100.109 17.0094C100.65 16.7847 101.232 16.6768 101.817 16.6927C102.383 16.6797 102.945 16.786 103.468 17.0045C103.99 17.2231 104.46 17.5491 104.848 17.9613C105.236 18.3735 105.533 18.8627 105.72 19.3972C105.906 19.9316 105.978 20.4994 105.931 21.0635C105.98 21.6479 105.906 22.2362 105.714 22.7903C105.521 23.3443 105.215 23.8517 104.813 24.2796C104.412 24.7074 103.926 25.0462 103.385 25.2739C102.845 25.5016 102.262 25.6145 101.676 25.6026ZM101.744 18.0798C100.375 18.0798 99.4943 19.3653 99.4943 21.1573C99.4943 22.9159 100.394 24.1963 101.725 24.1963C103.055 24.1963 103.955 22.8285 103.955 21.1188C103.964 19.3782 103.085 18.0798 101.744 18.0798ZM120.173 16.8675L117.503 25.4072H115.761L114.656 21.7101C114.379 20.8045 114.151 19.8849 113.972 18.9552H113.936C113.781 19.8903 113.552 20.8116 113.251 21.7101L112.077 25.4137H110.313L107.799 16.874H109.755L110.723 20.9285C110.95 21.8952 111.144 22.8041 111.302 23.6744H111.34C111.478 22.9519 111.712 22.0623 112.045 20.9478L113.258 16.874H114.801L115.966 20.8591C116.25 21.8258 116.48 22.7745 116.65 23.6731H116.698C116.838 22.7248 117.031 21.7853 117.277 20.8591L118.313 16.874L120.173 16.8675ZM130.023 25.4072H128.127V20.5017C128.127 18.9874 127.548 18.2353 126.404 18.2353C126.141 18.2446 125.883 18.3065 125.644 18.4172C125.405 18.528 125.191 18.6854 125.014 18.8802C124.838 19.0751 124.702 19.3033 124.614 19.5516C124.527 19.7998 124.491 20.063 124.507 20.3256V25.406H122.609V19.31C122.609 18.558 122.589 17.7468 122.541 16.8675H124.212L124.3 18.1865H124.349C124.629 17.7209 125.027 17.3378 125.503 17.0761C125.979 16.8144 126.516 16.6835 127.06 16.6966C128.849 16.6966 130.033 18.0644 130.033 20.296L130.023 25.4072ZM135.256 25.4072H133.359V12.9493H135.256V25.4072ZM142.198 25.6026C141.631 25.6104 141.069 25.4997 140.548 25.2777C140.026 25.0557 139.557 24.7272 139.17 24.3134C138.782 23.8995 138.486 23.4094 138.299 22.8743C138.112 22.3393 138.039 21.7711 138.084 21.2062C138.034 20.6227 138.107 20.0352 138.3 19.4821C138.492 18.929 138.799 18.4228 139.201 17.9967C139.603 17.5706 140.09 17.2341 140.631 17.0094C141.172 16.7847 141.754 16.6768 142.339 16.6927C142.905 16.6799 143.467 16.7863 143.99 17.0049C144.512 17.2236 144.982 17.5495 145.37 17.9617C145.758 18.3739 146.055 18.863 146.241 19.3974C146.428 19.9318 146.5 20.4994 146.453 21.0635C146.502 21.6483 146.427 22.2368 146.234 22.791C146.041 23.3451 145.733 23.8525 145.332 24.2803C144.93 24.7081 144.443 25.0467 143.902 25.2743C143.361 25.5018 142.778 25.6133 142.191 25.6014L142.198 25.6026ZM142.267 18.0798C140.897 18.0798 140.018 19.3653 140.018 21.1573C140.018 22.9159 140.918 24.1963 142.247 24.1963C143.576 24.1963 144.477 22.8285 144.477 21.1188C144.471 19.3782 143.6 18.0785 142.261 18.0785L142.267 18.0798ZM153.946 25.4072L153.809 24.42H153.76C153.472 24.8074 153.093 25.1173 152.656 25.3219C152.219 25.5265 151.739 25.6195 151.257 25.5924C150.917 25.6112 150.577 25.5601 150.258 25.442C149.938 25.324 149.647 25.1416 149.401 24.9062C149.155 24.6708 148.96 24.3874 148.828 24.0736C148.696 23.7597 148.63 23.4221 148.635 23.0817C148.635 20.9709 150.464 19.8872 153.633 19.8872V19.7304C153.633 18.6069 153.037 18.0399 151.864 18.0399C151.073 18.0267 150.297 18.2476 149.632 18.675L149.246 17.4242C150.137 16.908 151.154 16.6506 152.183 16.6811C154.412 16.6811 155.547 17.8535 155.547 20.2086V23.3556C155.534 24.0384 155.577 24.7212 155.675 25.397L153.946 25.4072ZM153.683 21.1573C151.569 21.1573 150.513 21.6715 150.513 22.8773C150.494 23.0545 150.514 23.2337 150.572 23.4022C150.63 23.5707 150.724 23.7243 150.849 23.8521C150.973 23.9799 151.124 24.0787 151.291 24.1415C151.457 24.2043 151.636 24.2296 151.814 24.2156C152.291 24.2295 152.755 24.0548 153.105 23.7293C153.455 23.4038 153.662 22.9537 153.683 22.4763V21.1573ZM164.755 25.4072L164.667 24.0394H164.619C164.363 24.5401 163.967 24.9551 163.479 25.2329C162.99 25.5107 162.431 25.6393 161.87 25.6026C159.806 25.6026 158.28 23.7952 158.28 21.2447C158.28 18.5773 159.865 16.6914 162.026 16.6914C162.495 16.642 162.968 16.7241 163.393 16.9284C163.818 17.1327 164.178 17.4513 164.432 17.8484H164.472V12.9493H166.368V23.1049C166.368 23.925 166.389 24.7079 166.438 25.4008H164.755V25.4072ZM164.481 20.3847C164.501 20.1062 164.464 19.8265 164.373 19.5625C164.282 19.2985 164.138 19.0557 163.951 18.8486C163.764 18.6415 163.536 18.4743 163.283 18.3573C163.029 18.2402 162.755 18.1755 162.476 18.1672C161.062 18.1672 160.207 19.418 160.207 21.1663C160.207 22.8863 161.096 24.0677 162.437 24.0677C162.721 24.0561 163 23.9879 163.257 23.8671C163.515 23.7464 163.745 23.5754 163.936 23.3643C164.126 23.1532 164.272 22.9062 164.366 22.6378C164.46 22.3695 164.499 22.0851 164.481 21.8014V20.3847ZM178.441 25.6014C177.874 25.6089 177.312 25.4981 176.791 25.276C176.269 25.0539 175.8 24.7255 175.413 24.3117C175.025 23.8979 174.729 23.4078 174.542 22.8728C174.355 22.3379 174.282 21.7698 174.327 21.2049C174.278 20.6228 174.351 20.0368 174.544 19.4851C174.736 18.9335 175.042 18.4285 175.443 18.0032C175.843 17.5779 176.329 17.2417 176.868 17.0166C177.407 16.7914 177.988 16.6824 178.572 16.6966C179.138 16.6834 179.7 16.7895 180.222 17.008C180.745 17.2265 181.215 17.5524 181.603 17.9647C181.991 18.377 182.288 18.8663 182.474 19.4008C182.661 19.9354 182.733 20.5032 182.685 21.0673C182.734 21.6512 182.66 22.2388 182.468 22.7922C182.275 23.3456 181.969 23.8524 181.568 24.2798C181.167 24.7073 180.681 25.0457 180.141 25.2734C179.602 25.501 179.02 25.6128 178.434 25.6014H178.441ZM178.509 18.0785C177.138 18.0785 176.258 19.364 176.258 21.156C176.258 22.9146 177.158 24.195 178.489 24.195C179.821 24.195 180.72 22.8272 180.72 21.1175C180.722 19.3782 179.842 18.0785 178.502 18.0785H178.509ZM192.918 25.406H191.019V20.5017C191.019 18.9874 190.442 18.2353 189.298 18.2353C189.035 18.2446 188.777 18.3065 188.538 18.4172C188.299 18.528 188.085 18.6854 187.908 18.8802C187.732 19.0751 187.595 19.3033 187.508 19.5516C187.421 19.7998 187.384 20.063 187.401 20.3256V25.406H185.502V19.31C185.502 18.558 185.484 17.7468 185.434 16.8675H187.105L187.194 18.1865H187.242C187.522 17.7203 187.919 17.3365 188.395 17.0739C188.871 16.8113 189.408 16.6793 189.951 16.6914C191.742 16.6914 192.926 18.0592 192.926 20.2909V25.4008L192.918 25.406ZM205.692 18.2932H203.599V22.4364C203.599 23.4918 203.961 24.0189 204.704 24.0189C204.987 24.0198 205.269 23.9905 205.546 23.9315L205.594 25.3674C205.118 25.5238 204.618 25.5965 204.117 25.5821C202.62 25.5821 201.721 24.7619 201.721 22.592V18.2842H200.469V16.8573H201.721V15.2941L203.589 14.7272V16.8573H205.683L205.692 18.2932ZM215.758 25.406H213.859V20.5416C213.859 19.0169 213.283 18.2456 212.139 18.2456C211.877 18.2386 211.617 18.287 211.375 18.3879C211.133 18.4887 210.916 18.6396 210.736 18.8306C210.557 19.0217 210.42 19.2485 210.335 19.4962C210.25 19.7439 210.218 20.0069 210.242 20.2677V25.4162H208.343V12.9467H210.242V18.0759H210.28C210.547 17.6371 210.926 17.2772 211.377 17.0334C211.829 16.7896 212.338 16.6707 212.851 16.6889C214.661 16.6889 215.767 18.0952 215.767 20.323L215.758 25.406ZM226.057 21.5957H220.355C220.342 21.9452 220.405 22.2934 220.538 22.6169C220.671 22.9403 220.871 23.2317 221.126 23.4713C221.381 23.711 221.684 23.8935 222.015 24.0065C222.346 24.1196 222.697 24.1606 223.045 24.1269C223.835 24.1366 224.619 24.0006 225.359 23.7258L225.654 25.0447C224.744 25.4154 223.769 25.5948 222.787 25.5718C222.213 25.6157 221.637 25.5343 221.098 25.3332C220.559 25.1321 220.07 24.816 219.665 24.407C219.26 23.998 218.949 23.5058 218.754 22.9647C218.559 22.4235 218.483 21.8462 218.533 21.273C218.533 18.6544 220.156 16.6914 222.572 16.6914C224.758 16.6914 226.123 18.3035 226.123 20.746C226.138 21.0312 226.114 21.317 226.051 21.5957H226.057ZM224.317 20.2382C224.317 18.9192 223.652 17.9911 222.439 17.9911C221.873 18.0334 221.344 18.2889 220.959 18.706C220.574 19.1231 220.362 19.6707 220.365 20.2382H224.317Z" fill="white"/>
</g>
</g>
<defs>
<clipPath id="clip0_4447_1873">
<rect width="258.404" height="83.5936" fill="white" transform="translate(0.0292969 0.756897)"/>
</clipPath>
</defs>
</svg>
