<svg width="133" height="104" viewBox="0 0 133 104" fill="none" xmlns="http://www.w3.org/2000/svg">
<path d="M116.357 42.6098L116.219 42.587H116.357V42.6098Z" fill="#D9FF9C"/>
<path d="M75.0871 26.0228C75.0871 18.1406 81.3829 12.4288 89.6926 12.4288C97.8401 12.4288 103.627 18.1406 103.627 26.0228C103.627 34.065 97.8633 39.9367 89.6926 39.9367C81.3829 39.9367 75.0871 34.065 75.0871 26.0228Z" fill="#D9FF9C"/>
<path d="M75.6195 3.03866L75.5963 3.13005L67.495 27.1424C66.4072 26.8225 65.0415 26.594 63.4212 26.5255C63.1203 26.5026 62.8194 26.5026 62.4954 26.5026C55.0191 26.5026 51.2925 29.7012 51.2925 36.0527V104H24.1184V57.9631C24.0953 57.9631 24.1184 32.5343 24.1184 32.5343V31.5061C24.1184 14.3708 32.6595 4.7522 47.4038 1.27944H47.427C49.8805 0.753954 52.5192 0.342707 55.2737 0.137083C55.2968 0.137083 55.32 0.137083 55.32 0.137083C56.593 0.0456942 57.9124 0 59.278 0C59.8798 0 60.4816 0 61.0603 0.0228471C61.2686 0.0228471 61.4769 0.0456942 61.6853 0.0456942C63.1435 0.114235 64.648 0.251318 66.1525 0.479789C66.222 0.479789 66.3146 0.502636 66.384 0.525483C69.4162 0.959578 72.5178 1.78207 75.6195 3.03866Z" fill="#D9FF9C"/>
<path d="M75.7815 59.1283L102.956 56.8436V104H75.7815V59.1283Z" fill="#D9FF9C"/>
<path d="M10.1613 27.7138C37.5668 40.0741 68.398 50.0354 98.6274 44.3008C108.465 42.3359 117.816 38.4976 126.149 32.8544L133 41.3535C119.922 53.0969 102.979 60.408 85.5728 63.1268C62.4957 66.828 38.9325 63.8807 16.5035 58.4203C10.9483 57.0494 5.43944 55.5187 0 53.8509L10.1613 27.7138Z" fill="#D9FF9C"/>
</svg>
