<svg width="113" height="111" viewBox="0 0 113 111" fill="none" xmlns="http://www.w3.org/2000/svg">
<path d="M17.0777 8.33296C32.6581 -2.55972 57.5297 -1.29057 77.9791 7.2189C88.188 11.4671 97.2403 17.5 103.432 24.6597C109.62 31.8162 112.93 40.0694 111.74 48.7968C109.326 66.5107 100.985 83.7436 88.5573 95.4418C76.1403 107.13 59.6548 113.288 40.8852 108.918C22.1952 104.567 8.3951 84.9374 3.21391 63.512C-1.9689 42.08 1.54919 19.1897 17.0777 8.33296Z" fill="#D9FF9C" stroke="#D9FF9C"/>
<path d="M45.6445 59.8016C45.2591 59.8016 44.893 59.6859 44.5461 59.4547L24.0805 45.2328C23.5023 44.8474 23.2133 44.3174 23.2133 43.643C23.2133 42.9685 23.5023 42.4385 24.0805 42.0531L31.2492 37.0812C31.4419 37.0042 31.6539 36.9945 31.8852 37.0523C32.1164 37.1102 32.2898 37.2354 32.4055 37.4281C32.5211 37.6208 32.5789 37.8328 32.5789 38.0641C32.5789 38.2953 32.5018 38.488 32.3477 38.6422L25.1789 43.6719L45.6445 57.8938L66.1102 43.6719L58.9414 38.6422C58.7872 38.488 58.7102 38.2953 58.7102 38.0641C58.7102 37.8328 58.768 37.6208 58.8836 37.4281C58.9992 37.2354 59.1727 37.1102 59.4039 37.0523C59.6352 36.9945 59.8471 37.0042 60.0398 37.0812L67.2086 42.0531C67.7867 42.4385 68.0758 42.9685 68.0758 43.643C68.0758 44.3174 67.7867 44.8474 67.2086 45.2328L46.743 59.4547C46.3961 59.6859 46.0299 59.8016 45.6445 59.8016ZM45.6445 48.2391C45.2591 48.2391 44.893 48.1234 44.5461 47.8922L24.0805 33.6703C23.5023 33.2849 23.2133 32.7549 23.2133 32.0805C23.2133 31.406 23.5023 30.876 24.0805 30.4906L44.5461 16.2687C44.893 16.0375 45.2591 15.9219 45.6445 15.9219C46.0299 15.9219 46.3961 16.0375 46.743 16.2687L67.2086 30.4906C67.7867 30.876 68.0758 31.406 68.0758 32.0805C68.0758 32.7549 67.7867 33.2849 67.2086 33.6703L46.743 47.8922C46.3961 48.1234 46.0299 48.2391 45.6445 48.2391ZM45.6445 17.8297L25.1789 32.1094L45.6445 46.3312L66.1102 32.1094L45.6445 17.8297ZM23.5023 56.3906C23.2326 56.3906 23.0013 56.2943 22.8086 56.1016C22.6159 55.9089 22.5195 55.6776 22.5195 55.4078C22.5195 55.2922 22.5388 55.1766 22.5773 55.0609C22.6159 54.9453 22.693 54.8297 22.8086 54.7141L22.9242 54.5984L23.2711 54.4828C23.3867 54.4443 23.5216 54.4443 23.6758 54.4828L23.8492 54.5406C23.9648 54.5792 24.0708 54.6466 24.1672 54.743C24.2635 54.8393 24.331 54.9453 24.3695 55.0609C24.4081 55.1766 24.4273 55.2922 24.4273 55.4078C24.4273 55.6776 24.3406 55.9089 24.1672 56.1016C23.9937 56.2943 23.7721 56.3906 23.5023 56.3906ZM27.318 59.2812C27.0867 59.2812 26.8747 59.1849 26.682 58.9922C26.6049 58.9151 26.5375 58.8187 26.4797 58.7031C26.4219 58.5875 26.393 58.4526 26.393 58.2984C26.393 58.0286 26.499 57.7878 26.7109 57.5758C26.9229 57.3638 27.2023 57.2964 27.5492 57.3734L27.8961 57.4891L28.0117 57.6047C28.1659 57.7589 28.2622 57.9323 28.3008 58.125C28.3393 58.3177 28.3201 58.4911 28.243 58.6453C28.1659 58.7995 28.0888 58.9151 28.0117 58.9922C27.819 59.1849 27.5878 59.2812 27.318 59.2812ZM26.393 53.5C26.2388 53.5 26.1039 53.4711 25.9883 53.4133C25.8727 53.3555 25.7763 53.288 25.6992 53.2109C25.5065 53.0182 25.4102 52.7966 25.4102 52.5461C25.4102 52.2956 25.5065 52.074 25.6992 51.8813C25.7763 51.8042 25.8919 51.7271 26.0461 51.65C26.2003 51.5729 26.3737 51.5536 26.5664 51.5922L26.7398 51.65C26.8169 51.6885 26.8747 51.7271 26.9133 51.7656L27.0867 51.8813C27.2409 52.074 27.318 52.2956 27.318 52.5461C27.318 52.7966 27.2409 53.0182 27.0867 53.2109C26.9711 53.3266 26.8555 53.4036 26.7398 53.4422C26.6242 53.4807 26.5086 53.5 26.393 53.5ZM30.2086 56.3906C29.9773 56.3906 29.7654 56.2943 29.5727 56.1016C29.4956 56.0245 29.4281 55.9281 29.3703 55.8125C29.3125 55.6969 29.2836 55.562 29.2836 55.4078C29.2836 55.138 29.3799 54.9164 29.5727 54.743C29.7654 54.5695 29.987 54.4828 30.2375 54.4828C30.488 54.4828 30.7096 54.5695 30.9023 54.743C31.0951 54.9164 31.1914 55.138 31.1914 55.4078C31.1914 55.6776 31.0951 55.9089 30.9023 56.1016C30.7096 56.2943 30.4784 56.3906 30.2086 56.3906ZM34.082 59.2812C33.7352 59.2812 33.475 59.1367 33.3016 58.8477C33.1281 58.5586 33.0992 58.2599 33.2148 57.9516C33.2534 57.8359 33.3112 57.7203 33.3883 57.6047L33.5617 57.4891L33.9086 57.3734C34.1013 57.3349 34.2844 57.3638 34.4578 57.4602C34.6313 57.5565 34.7661 57.701 34.8625 57.8938C34.9589 58.0865 34.9878 58.2888 34.9492 58.5008C34.9107 58.7128 34.8143 58.8862 34.6602 59.0211C34.506 59.156 34.3133 59.2427 34.082 59.2812ZM35.0648 65.0625C34.7951 65.0625 34.5638 64.9661 34.3711 64.7734C34.1784 64.5807 34.082 64.3495 34.082 64.0797C34.082 63.9641 34.1013 63.8484 34.1398 63.7328C34.1784 63.6172 34.2555 63.5016 34.3711 63.3859C34.6794 63.1161 35.0263 63.0583 35.4117 63.2125C35.5273 63.251 35.643 63.3089 35.7586 63.3859C35.9128 63.5786 35.9898 63.8099 35.9898 64.0797C35.9898 64.3495 35.9031 64.5807 35.7297 64.7734C35.5563 64.9661 35.3346 65.0625 35.0648 65.0625ZM37.9555 62.1719C37.6857 62.1719 37.4544 62.0852 37.2617 61.9117C37.069 61.7383 36.9727 61.5167 36.9727 61.2469V61.1891C36.9727 61.0734 36.9919 60.9578 37.0305 60.8422C37.069 60.7266 37.1461 60.6109 37.2617 60.4953C37.4544 60.3026 37.6857 60.2063 37.9555 60.2063C38.2253 60.2063 38.4565 60.3026 38.6492 60.4953C38.7263 60.6109 38.7841 60.7266 38.8227 60.8422C38.9383 61.1505 38.9094 61.4492 38.7359 61.7383C38.5625 62.0273 38.3023 62.1719 37.9555 62.1719ZM38.8805 67.9531C38.6492 67.9531 38.4372 67.8568 38.2445 67.6641C38.0518 67.4714 37.9555 67.2594 37.9555 67.0281V66.9703C37.9555 66.8547 37.9844 66.7391 38.0422 66.6234C38.1 66.5078 38.1674 66.4115 38.2445 66.3344C38.5529 66.0646 38.8901 66.0068 39.2563 66.1609C39.6224 66.3151 39.8247 66.5849 39.8633 66.9703C39.8633 67.2401 39.7669 67.4714 39.5742 67.6641C39.3815 67.8568 39.1503 67.9531 38.8805 67.9531ZM41.7711 65.0625C41.5398 65.0625 41.3279 64.9661 41.1352 64.7734C40.9424 64.5807 40.8461 64.3687 40.8461 64.1375V64.0797C40.8461 63.8099 40.9424 63.5786 41.1352 63.3859C41.2122 63.3089 41.3086 63.251 41.4242 63.2125C41.8096 63.0583 42.1565 63.1161 42.4648 63.3859C42.6576 63.5786 42.7539 63.8099 42.7539 64.0797C42.7539 64.3495 42.6672 64.5807 42.4937 64.7734C42.3203 64.9661 42.0987 65.0625 41.8289 65.0625H41.7711ZM45.6445 67.9531C45.3747 67.9531 45.1435 67.8568 44.9508 67.6641C44.8737 67.587 44.8062 67.4906 44.7484 67.375C44.6906 67.2594 44.6617 67.1245 44.6617 66.9703C44.6617 66.7391 44.7581 66.5271 44.9508 66.3344C45.2591 66.026 45.606 65.949 45.9914 66.1031C46.107 66.1417 46.2227 66.2188 46.3383 66.3344C46.4924 66.5271 46.5888 66.7391 46.6273 66.9703C46.6273 67.1245 46.5984 67.2594 46.5406 67.375C46.4828 67.4906 46.4154 67.587 46.3383 67.6641C46.1456 67.8568 45.9143 67.9531 45.6445 67.9531ZM42.7539 70.8438C42.4841 70.8438 42.2529 70.757 42.0602 70.5836C41.8674 70.4102 41.7711 70.1885 41.7711 69.9188V69.8609C41.7711 69.6297 41.8674 69.4177 42.0602 69.225C42.1758 69.1094 42.2914 69.0323 42.407 68.9938C42.7924 68.8396 43.1393 68.9167 43.4477 69.225C43.6018 69.4177 43.6885 69.6393 43.7078 69.8898C43.7271 70.1404 43.6404 70.362 43.4477 70.5547C43.2549 70.7474 43.0237 70.8438 42.7539 70.8438ZM31.1914 62.1719C31.0758 62.1719 30.9602 62.1526 30.8445 62.1141C30.7289 62.0755 30.6133 61.9984 30.4977 61.8828C30.3049 61.6901 30.2086 61.4589 30.2086 61.1891C30.2086 61.0734 30.2375 60.9578 30.2953 60.8422C30.3531 60.7266 30.4206 60.6109 30.4977 60.4953C30.7289 60.2641 31.018 60.187 31.3648 60.2641L31.7117 60.3797L31.8852 60.4953C31.9622 60.6109 32.0297 60.7266 32.0875 60.8422C32.1453 60.9578 32.1742 61.0734 32.1742 61.1891C32.1742 61.4589 32.0779 61.6901 31.8852 61.8828C31.7695 61.9984 31.6539 62.0755 31.5383 62.1141C31.4227 62.1526 31.307 62.1719 31.1914 62.1719ZM67.7867 56.3906C67.6711 56.3906 67.5555 56.3617 67.4398 56.3039C67.3242 56.2461 67.2279 56.1786 67.1508 56.1016C67.0737 56.0245 66.9966 55.9281 66.9195 55.8125C66.8039 55.5427 66.8039 55.2922 66.9195 55.0609C66.9581 54.9453 67.0352 54.8297 67.1508 54.7141L67.2664 54.5984L67.6133 54.4828C67.7674 54.4443 67.9023 54.4443 68.018 54.4828L68.3648 54.5984L68.4805 54.7141C68.5961 54.8297 68.6732 54.9453 68.7117 55.0609C68.8273 55.2922 68.8273 55.5427 68.7117 55.8125C68.6346 55.9281 68.5576 56.0245 68.4805 56.1016C68.2878 56.2943 68.0565 56.3906 67.7867 56.3906ZM63.9711 59.2812C63.8169 59.2812 63.682 59.2523 63.5664 59.1945C63.4508 59.1367 63.3544 59.0693 63.2773 58.9922C63.0846 58.7995 62.9883 58.5682 62.9883 58.2984C62.9883 58.1828 63.0076 58.0672 63.0461 57.9516C63.0846 57.8359 63.1617 57.7203 63.2773 57.6047L63.393 57.4891L63.5664 57.4312C63.6435 57.3927 63.7302 57.3638 63.8266 57.3445C63.9229 57.3253 64.0289 57.3349 64.1445 57.3734L64.4914 57.4891L64.6648 57.6047C64.7419 57.7203 64.7997 57.8359 64.8383 57.9516C64.9539 58.1828 64.9539 58.4333 64.8383 58.7031C64.7997 58.8187 64.7419 58.9151 64.6648 58.9922C64.4721 59.1849 64.2409 59.2812 63.9711 59.2812ZM64.8961 53.5C64.7805 53.5 64.6648 53.4711 64.5492 53.4133C64.4336 53.3555 64.3372 53.288 64.2602 53.2109C64.1831 53.1339 64.1156 53.0375 64.0578 52.9219C64 52.8062 63.9711 52.6714 63.9711 52.5172V52.3438L64.0289 52.1703L64.1445 51.9969C64.1831 51.8813 64.2602 51.7849 64.3758 51.7078L64.7227 51.5922C65.0695 51.5151 65.3586 51.5922 65.5898 51.8234L65.8211 52.1703L65.8789 52.3438V52.5172C65.8789 52.6714 65.8596 52.8062 65.8211 52.9219C65.744 53.1917 65.5706 53.3651 65.3008 53.4422C65.1852 53.4807 65.0503 53.5 64.8961 53.5ZM61.0805 56.3906C60.8107 56.3906 60.5794 56.3039 60.3867 56.1305C60.194 55.957 60.0977 55.7354 60.0977 55.4656V55.2344L60.1555 55.0609L60.3867 54.7141C60.4638 54.637 60.5602 54.5792 60.6758 54.5406C60.8685 54.4635 61.0612 54.4443 61.2539 54.4828L61.6008 54.5984L61.7742 54.7141L61.8898 54.8875L62.0055 55.2344V55.4078C62.0055 55.6776 61.9188 55.9089 61.7453 56.1016C61.5719 56.2943 61.3503 56.3906 61.0805 56.3906ZM57.207 59.2812C56.9372 59.2812 56.706 59.1849 56.5133 58.9922C56.4362 58.9151 56.3784 58.8187 56.3398 58.7031C56.2242 58.4719 56.2242 58.2214 56.3398 57.9516C56.3784 57.8359 56.4362 57.7203 56.5133 57.6047C56.706 57.412 56.9372 57.3156 57.207 57.3156C57.4768 57.3156 57.7081 57.412 57.9008 57.6047C57.9779 57.7203 58.0357 57.8359 58.0742 57.9516C58.1898 58.2214 58.1995 58.4815 58.1031 58.732C58.0068 58.9826 57.8237 59.1464 57.5539 59.2234C57.4383 59.262 57.3227 59.2812 57.207 59.2812ZM56.2242 65.0625C55.993 65.0625 55.781 64.9661 55.5883 64.7734C55.3956 64.5807 55.2992 64.3495 55.2992 64.0797C55.2992 63.9641 55.3185 63.8484 55.357 63.7328C55.3956 63.6172 55.4727 63.5016 55.5883 63.3859C55.8195 63.1547 56.1086 63.0776 56.4555 63.1547L56.8023 63.2703L56.918 63.3859C57.0336 63.5016 57.1107 63.6172 57.1492 63.7328C57.3034 64.1182 57.2263 64.4651 56.918 64.7734C56.8409 64.8505 56.7445 64.918 56.6289 64.9758C56.5133 65.0336 56.3784 65.0625 56.2242 65.0625ZM53.3336 62.1719C53.218 62.1719 53.1023 62.143 52.9867 62.0852C52.8711 62.0273 52.7747 61.9599 52.6977 61.8828C52.5049 61.6901 52.4086 61.4589 52.4086 61.1891C52.4086 60.9193 52.5049 60.6977 52.6977 60.5242C52.8904 60.3508 53.112 60.2641 53.3625 60.2641C53.613 60.2641 53.8346 60.3411 54.0273 60.4953L54.2586 60.8422L54.3164 61.0156V61.1891C54.3164 61.4589 54.2297 61.6901 54.0562 61.8828C53.8828 62.0755 53.6612 62.1719 53.3914 62.1719H53.3336ZM52.4086 67.9531C52.2544 67.9531 52.1195 67.9242 52.0039 67.8664C51.8883 67.8086 51.7919 67.7411 51.7148 67.6641C51.5221 67.4714 51.4258 67.2401 51.4258 66.9703C51.4258 66.8547 51.4547 66.7391 51.5125 66.6234C51.5703 66.5078 51.6378 66.4115 51.7148 66.3344C52.0232 66.026 52.3701 65.949 52.7555 66.1031C52.8711 66.1417 52.9771 66.2091 53.0734 66.3055C53.1698 66.4018 53.2372 66.5078 53.2758 66.6234C53.3914 66.8932 53.3914 67.1437 53.2758 67.375C53.2372 67.4906 53.1794 67.587 53.1023 67.6641C52.9096 67.8568 52.6784 67.9531 52.4086 67.9531ZM49.518 65.0625C49.2482 65.0625 49.0169 64.9661 48.8242 64.7734C48.7471 64.6964 48.6701 64.6 48.593 64.4844C48.5159 64.2917 48.4966 64.0797 48.5352 63.8484C48.5737 63.6172 48.6893 63.4341 48.882 63.2992C49.0747 63.1643 49.2771 63.0969 49.4891 63.0969C49.701 63.0969 49.9034 63.1643 50.0961 63.2992C50.2888 63.4341 50.4044 63.6172 50.443 63.8484C50.4815 64.0797 50.4622 64.2917 50.3852 64.4844C50.3466 64.6 50.2888 64.6964 50.2117 64.7734C50.019 64.9661 49.7878 65.0625 49.518 65.0625ZM48.5352 70.8438C48.1112 70.8438 47.8221 70.651 47.668 70.2656C47.5523 70.0344 47.5523 69.7646 47.668 69.4562C47.7836 69.1479 48.0148 68.9648 48.3617 68.907C48.7086 68.8492 48.9977 68.9552 49.2289 69.225C49.306 69.3021 49.3638 69.3984 49.4023 69.5141C49.518 69.7453 49.518 69.9862 49.4023 70.2367C49.2867 70.4872 49.1133 70.6703 48.882 70.7859C48.7664 70.8245 48.6508 70.8438 48.5352 70.8438ZM45.6445 73.7344C45.3747 73.7344 45.1435 73.638 44.9508 73.4453C44.8737 73.3682 44.8159 73.2719 44.7773 73.1562C44.6617 72.8865 44.6617 72.6359 44.7773 72.4047C44.8159 72.2891 44.8737 72.1927 44.9508 72.1156C45.2591 71.8073 45.606 71.7302 45.9914 71.8844C46.107 71.9229 46.213 71.9904 46.3094 72.0867C46.4057 72.1831 46.4732 72.2891 46.5117 72.4047C46.6273 72.6359 46.6273 72.8865 46.5117 73.1562C46.4732 73.2719 46.4154 73.3682 46.3383 73.4453C46.1456 73.638 45.9143 73.7344 45.6445 73.7344ZM60.0977 62.1719C59.8279 62.1719 59.5966 62.0755 59.4039 61.8828C59.3268 61.8057 59.269 61.7094 59.2305 61.5938C59.1148 61.401 59.0859 61.1891 59.1437 60.9578C59.2016 60.7266 59.3172 60.5339 59.4906 60.3797C59.6641 60.2255 59.8664 60.1484 60.0977 60.1484C60.3289 60.1484 60.5312 60.2255 60.7047 60.3797C60.8781 60.5339 60.9938 60.7266 61.0516 60.9578C61.1094 61.1891 61.0901 61.4203 60.9938 61.6516C60.8974 61.8828 60.7143 62.037 60.4445 62.1141C60.3289 62.1526 60.2133 62.1719 60.0977 62.1719Z" fill="#02342C"/>
</svg>
