<svg width="112" height="111" viewBox="0 0 112 111" fill="none" xmlns="http://www.w3.org/2000/svg">
<path d="M16.5972 8.33296C32.1776 -2.55972 57.0492 -1.29057 77.4986 7.2189C87.7075 11.4671 96.7598 17.5 102.951 24.6597C109.14 31.8162 112.449 40.0694 111.26 48.7968C108.845 66.5107 100.505 83.7436 88.0768 95.4418C75.6598 107.13 59.1743 113.288 40.4048 108.918C21.7147 104.567 7.91463 84.9374 2.73344 63.512C-2.44937 42.08 1.06872 19.1897 16.5972 8.33296Z" fill="#D9FF9C" stroke="#D9FF9C"/>
<path d="M50.6622 75.8398H40.3733C39.2173 75.8398 38.119 75.6183 37.0786 75.1751C36.0381 74.732 35.1133 74.1058 34.3041 73.2965L23.6106 62.603C23.1867 62.1791 22.888 61.6878 22.7146 61.1291C22.5412 60.5703 22.4834 60.0019 22.5412 59.4239C22.599 58.8459 22.7917 58.3064 23.1192 57.8054C23.4468 57.3044 23.861 56.8998 24.362 56.5915C25.1327 56.1291 25.9708 55.9557 26.8764 56.0713C27.782 56.1869 28.5431 56.5723 29.1596 57.2274L34.5931 62.7186C34.7087 62.8728 34.8628 62.9691 35.0555 63.0076C35.2482 63.0462 35.4408 63.0269 35.6335 62.9498C35.8262 62.8728 35.9803 62.7475 36.0959 62.5741C36.2115 62.4007 36.2693 62.2177 36.2693 62.025V31.5052C36.2693 30.4647 36.6451 29.5688 37.3965 28.8174C38.1479 28.0659 39.0439 27.6902 40.0843 27.6902H40.2577C41.2982 27.7673 42.1652 28.1912 42.8589 28.9619C43.5525 29.7326 43.8993 30.6381 43.8993 31.6786V39.771C44.4003 39.4627 44.9398 39.2893 45.5178 39.2507C46.0958 39.2122 46.6546 39.2893 47.1941 39.4819C47.7335 39.6746 48.196 39.9829 48.5813 40.4068C48.9667 40.8307 49.2557 41.3124 49.4484 41.8519C50.142 41.3509 50.932 41.1197 51.8183 41.1582C52.8587 41.2353 53.7354 41.6688 54.4483 42.4588C55.1612 43.2488 55.4984 44.164 55.4598 45.2044V45.5512C56.1149 45.1659 56.8086 44.9925 57.5407 45.031C58.5812 45.1081 59.4482 45.532 60.1419 46.3027C60.8355 47.0734 61.1823 47.9789 61.1823 49.0194V65.262C61.1823 67.1887 60.7103 68.9517 59.7661 70.5509C58.822 72.1501 57.5504 73.4314 55.9512 74.3948C54.352 75.3582 52.589 75.8398 50.6622 75.8398ZM26.3273 57.9788C25.9805 57.9788 25.6529 58.0559 25.3446 58.21C24.7666 58.5183 24.4487 59 24.3909 59.6551C24.3331 60.3102 24.5354 60.8497 24.9978 61.2736L35.6335 71.9671C36.2501 72.5836 36.9726 73.0653 37.8011 73.4121C38.6296 73.7589 39.487 73.9324 40.3733 73.9324H50.6622C52.2422 73.9324 53.6872 73.5374 54.9974 72.7474C56.3076 71.9574 57.3481 70.9073 58.1188 69.5972C58.8895 68.287 59.2748 66.8419 59.2748 65.262V49.0194C59.2748 48.4799 59.111 48.0175 58.7835 47.6321C58.4559 47.2468 58.0224 47.0252 57.4829 46.9674C56.9434 46.9096 56.4714 47.0734 56.0668 47.4587C55.6622 47.8441 55.4598 48.3065 55.4598 48.846V49.8286C55.4598 50.0984 55.3635 50.3296 55.1708 50.5223C54.9782 50.7149 54.7469 50.8113 54.4772 50.8113C54.2075 50.8113 53.9762 50.7149 53.7836 50.5223C53.5909 50.3296 53.4946 50.0984 53.4946 49.8286V45.1466C53.4946 44.6071 53.3308 44.1447 53.0032 43.7593C52.6757 43.374 52.2422 43.1524 51.7027 43.0946C51.1632 43.0368 50.6911 43.191 50.2865 43.557C49.8819 43.9231 49.6796 44.3759 49.6796 44.9154V49.8286C49.641 50.0598 49.5254 50.2429 49.3328 50.3778C49.1401 50.5126 48.9378 50.5801 48.7258 50.5801C48.5139 50.5801 48.3116 50.5126 48.1189 50.3778C47.9262 50.2429 47.8106 50.0598 47.7721 49.8286V43.2391C47.7721 42.6996 47.6083 42.2372 47.2808 41.8519C46.9532 41.4665 46.5197 41.2449 45.9802 41.1871C45.4407 41.1293 44.9687 41.2835 44.564 41.6496C44.1594 42.0156 43.9571 42.4684 43.9571 43.0079V49.8286C43.9571 50.0984 43.8608 50.3296 43.6681 50.5223C43.4754 50.7149 43.2442 50.8113 42.9745 50.8113C42.7047 50.8113 42.4735 50.7149 42.2808 50.5223C42.0882 50.3296 41.9918 50.0984 41.9918 49.8286V31.6786C41.9918 31.1391 41.828 30.6767 41.5005 30.2913C41.1729 29.906 40.7394 29.6844 40.1999 29.6266C39.6604 29.5688 39.1884 29.7229 38.7838 30.089C38.3791 30.4551 38.1768 30.9079 38.1768 31.4474V62.025C38.1768 62.603 38.0131 63.1329 37.6855 63.6146C37.358 64.0963 36.9341 64.4527 36.4139 64.6839C35.8936 64.9151 35.3445 64.9826 34.7665 64.8862C34.1885 64.7899 33.6875 64.5298 33.2636 64.1059L27.8302 58.6146C27.4063 58.1908 26.9053 57.9788 26.3273 57.9788ZM37.1942 42.7189C37.1171 42.7189 37.0401 42.7189 36.963 42.7189C35.0748 42.2565 33.3888 41.3991 31.9052 40.1467C30.4216 38.8943 29.2849 37.3914 28.4949 35.6381C27.7049 33.8847 27.3485 32.035 27.4255 30.089C27.5026 28.143 28.0036 26.3222 28.9284 24.6267C29.8532 22.9311 31.096 21.5149 32.6567 20.3782C34.2174 19.2414 35.9611 18.5092 37.8878 18.1817C39.8146 17.8541 41.7028 17.9697 43.5525 18.5285C45.4022 19.0872 47.0399 20.0121 48.4657 21.303C49.8915 22.5939 50.9609 24.145 51.6738 25.9561C52.3867 27.7673 52.6564 29.6362 52.483 31.563C52.3096 33.4897 51.7316 35.2816 50.7489 36.9386C49.7663 38.5956 48.4657 39.9636 46.8472 41.0426C46.616 41.1197 46.3945 41.1197 46.1825 41.0426C45.9706 40.9656 45.7972 40.8307 45.6623 40.638C45.5274 40.4453 45.4792 40.2334 45.5178 40.0022C45.5563 39.771 45.6527 39.5783 45.8068 39.4241C47.1941 38.4993 48.2923 37.3433 49.1015 35.956C49.9108 34.5687 50.3828 33.0659 50.5177 31.4474C50.6526 29.8289 50.4117 28.249 49.7952 26.7076C49.1786 25.1661 48.273 23.856 47.0785 22.777C45.8839 21.698 44.5062 20.9273 42.9456 20.4649C41.3849 20.0024 39.7953 19.9061 38.1768 20.1758C36.5584 20.4456 35.094 21.0622 33.7838 22.0255C32.4736 22.9889 31.4332 24.1835 30.6625 25.6093C29.8918 27.0351 29.4775 28.5669 29.4197 30.2046C29.3619 31.8424 29.6606 33.403 30.3157 34.8866C30.9708 36.3702 31.9245 37.6419 33.1769 38.7016C34.4293 39.7613 35.8455 40.4839 37.4254 40.8692C37.6181 40.9463 37.7626 41.0812 37.8589 41.2738C37.9553 41.4665 37.9938 41.6688 37.9745 41.8808C37.9553 42.0927 37.8686 42.2757 37.7144 42.4299C37.5603 42.584 37.3869 42.6804 37.1942 42.7189ZM37.1942 37.6901C37.0401 37.6901 36.9052 37.6515 36.7896 37.5745C35.1711 36.8038 33.9572 35.6188 33.148 34.0196C32.3388 32.4204 32.1268 30.7441 32.5122 28.9908C32.8975 27.2374 33.7838 25.7923 35.1711 24.6556C36.5584 23.5188 38.1479 22.9407 39.9398 22.9215C41.7317 22.9022 43.3405 23.4513 44.7663 24.5689C46.1921 25.6864 47.1074 27.1122 47.512 28.8463C47.9166 30.5803 47.7335 32.2662 46.9628 33.904C46.1921 35.5417 44.9976 36.746 43.3791 37.5167C43.1479 37.5552 42.9359 37.5263 42.7432 37.43C42.5506 37.3336 42.4061 37.1795 42.3097 36.9675C42.2134 36.7556 42.1845 36.5436 42.223 36.3317C42.2616 36.1198 42.3772 35.9367 42.5698 35.7826C43.7644 35.2046 44.6507 34.299 45.2288 33.0659C45.8068 31.8327 45.9417 30.5611 45.6334 29.2509C45.3251 27.9407 44.6411 26.8713 43.5814 26.0428C42.5217 25.2143 41.3174 24.8097 39.9687 24.829C38.62 24.8482 37.4158 25.2818 36.3561 26.1295C35.2963 26.9773 34.6316 28.0659 34.3619 29.3954C34.0921 30.7248 34.2559 31.9869 34.8532 33.1815C35.4505 34.376 36.3657 35.2624 37.5988 35.8404C37.7915 35.956 37.936 36.1101 38.0323 36.3028C38.1287 36.4955 38.1479 36.6978 38.0901 36.9097C38.0323 37.1217 37.9264 37.3047 37.7722 37.4589C37.6181 37.613 37.4254 37.6901 37.1942 37.6901Z" fill="#02342C"/>
</svg>
