<svg width="113" height="111" viewBox="0 0 113 111" fill="none" xmlns="http://www.w3.org/2000/svg">
<path d="M17.5777 8.33296C33.1581 -2.55972 58.0297 -1.29057 78.4791 7.2189C88.688 11.4671 97.7403 17.5 103.932 24.6597C110.12 31.8162 113.43 40.0694 112.24 48.7968C109.826 66.5107 101.485 83.7436 89.0573 95.4418C76.6403 107.13 60.1548 113.288 41.3852 108.918C22.6952 104.567 8.8951 84.9374 3.71391 63.512C-1.4689 42.08 2.04919 19.1897 17.5777 8.33296Z" fill="#D9FF9C" stroke="#D9FF9C"/>
<path d="M44.41 69.8101C40.6324 69.8101 37.009 69.0971 33.5398 67.6711C31.7667 66.9774 30.0899 66.1102 28.5095 65.0696L27.0062 64.0291C26.852 63.8749 26.7653 63.6726 26.746 63.4221C26.7267 63.1715 26.7845 62.9499 26.9194 62.7572C27.0544 62.5645 27.2375 62.4393 27.4687 62.3815C27.7 62.3237 27.9313 62.3526 28.1626 62.4682C28.7793 62.9307 29.2419 63.2583 29.5503 63.451C31.015 64.4145 32.5665 65.2238 34.2048 65.879C35.843 66.5342 37.5294 67.0352 39.264 67.382C42.6947 68.0372 46.1253 68.0372 49.556 67.382C51.2906 67.0352 52.977 66.5342 54.6152 65.879C56.2535 65.2238 57.805 64.4145 59.2697 63.451C62.3535 61.4083 64.9168 58.8454 66.9598 55.7622C67.962 54.2977 68.7908 52.7368 69.4461 51.0796C70.4097 48.6516 71.0168 46.1369 71.2674 43.5354C71.5179 40.934 71.3927 38.3421 70.8916 35.76C70.5832 34.0257 70.1014 32.3395 69.4461 30.7016C68.7908 29.0636 67.962 27.5124 66.9598 26.0479C66.8442 25.8166 66.8153 25.5758 66.8731 25.3253C66.9309 25.0748 67.0658 24.8821 67.2778 24.7472C67.4898 24.6123 67.7211 24.5641 67.9716 24.6026C68.2222 24.6412 68.4246 24.7568 68.5788 24.9495C69.6195 26.5296 70.5061 28.2061 71.2385 29.979C72.2792 32.5997 72.9345 35.3071 73.2044 38.1013C73.4742 40.8954 73.3393 43.6607 72.7996 46.397C72.4527 48.2469 71.9227 50.0487 71.2096 51.8022C70.4965 53.5558 69.6195 55.2227 68.5788 56.8028C66.4201 60.1172 63.6833 62.8729 60.3683 65.0696C58.7494 66.1102 57.0533 66.9774 55.2802 67.6711C51.811 69.0971 48.1876 69.8101 44.41 69.8101ZM44.41 54.3748C41.9816 54.3748 39.7362 53.7678 37.674 52.5538C35.6117 51.3398 33.9831 49.7018 32.7882 47.6399C31.5932 45.578 30.9958 43.3234 30.9958 40.8762C30.9958 38.4289 31.6029 36.1743 32.8171 34.1124C34.0313 32.0505 35.6695 30.4222 37.7318 29.2274C39.794 28.0327 42.049 27.4353 44.4967 27.4353C46.9444 27.4353 49.1898 28.0423 51.2328 29.2563C53.2757 30.4704 54.9043 32.1083 56.1185 34.1702C57.3328 36.2321 57.9399 38.477 57.9399 40.9051C57.9399 43.3331 57.3328 45.578 56.1185 47.6399C54.9043 49.7018 53.2565 51.3398 51.1749 52.5538C49.0934 53.7678 46.8384 54.3748 44.41 54.3748ZM44.41 29.3431C42.3285 29.3431 40.4011 29.8633 38.628 30.9039C36.8549 31.9445 35.4479 33.3512 34.4071 35.1241C33.3664 36.8969 32.846 38.8239 32.846 40.9051C32.846 42.9862 33.3664 44.9132 34.4071 46.6861C35.4479 48.4589 36.8549 49.8656 38.628 50.9062C40.4011 51.9468 42.3285 52.4671 44.41 52.4671C46.4915 52.4671 48.4189 51.9468 50.192 50.9062C51.9651 49.8656 53.3721 48.4589 54.4129 46.6861C55.4536 44.9132 55.974 42.9862 55.974 40.9051C55.974 38.8239 55.4536 36.8969 54.4129 35.1241C53.3721 33.3512 51.9651 31.9445 50.192 30.9039C48.4189 29.8633 46.4915 29.3431 44.41 29.3431ZM44.41 50.5593C42.6754 50.5593 41.0661 50.1258 39.582 49.2586C38.098 48.3915 36.9223 47.216 36.055 45.7322C35.1877 44.2484 34.7541 42.6394 34.7541 40.9051C34.7541 39.1708 35.1877 37.5617 36.055 36.0779C36.9223 34.5941 38.098 33.4187 39.582 32.5515C41.0661 31.6844 42.6754 31.2508 44.41 31.2508C46.1446 31.2508 47.7539 31.6844 49.238 32.5515C50.722 33.4187 51.8977 34.5941 52.765 36.0779C53.6323 37.5617 54.0659 39.1708 54.0659 40.9051C54.0659 42.6394 53.6323 44.2484 52.765 45.7322C51.8977 47.216 50.722 48.3915 49.238 49.2586C47.7539 50.1258 46.1446 50.5593 44.41 50.5593ZM44.41 33.1585C43.0223 33.1585 41.7406 33.5054 40.565 34.1991C39.3893 34.8928 38.4642 35.8274 37.7896 37.0029C37.115 38.1784 36.7778 39.4598 36.7778 40.8472C36.7778 42.2347 37.1247 43.5161 37.8185 44.6916C38.5124 45.8671 39.4471 46.8017 40.6228 47.4954C41.7985 48.1891 43.0801 48.536 44.4678 48.536C45.8555 48.536 47.1372 48.1988 48.3129 47.5243C49.4885 46.8499 50.4233 45.9249 51.1171 44.7494C51.811 43.574 52.1579 42.2925 52.1579 40.9051C52.1579 39.8645 51.9651 38.8721 51.5797 37.9278C51.1942 36.9836 50.6353 36.1454 49.9029 35.4131C49.1705 34.6808 48.3321 34.122 47.3877 33.7366C46.4433 33.3512 45.4508 33.1585 44.41 33.1585ZM24.2886 67.093H24.173C23.8261 67.093 23.4984 66.9966 23.1901 66.8039C23.0359 66.7269 22.8913 66.6209 22.7564 66.486C22.6215 66.3511 22.5155 66.2066 22.4384 66.0524C22.3613 65.8982 22.3035 65.7248 22.2649 65.5321L20.646 59.1152C20.6074 58.961 20.5882 58.7876 20.5882 58.5949C20.5882 58.2481 20.6845 57.9205 20.8773 57.6121C20.9544 57.458 21.0507 57.3231 21.1664 57.2075C21.282 57.0919 21.4169 56.9859 21.5711 56.8895C21.7253 56.7932 21.8795 56.7257 22.0337 56.6872C22.1878 56.6486 22.3613 56.6294 22.554 56.6294C22.7468 56.6294 22.9395 56.6486 23.1322 56.6872L29.4924 58.2481C30.0706 58.4022 30.5139 58.7298 30.8223 59.2308C31.015 59.5391 31.1114 59.8667 31.1114 60.2136C31.1114 60.4063 31.0921 60.5797 31.0536 60.7339C30.9765 61.1193 30.803 61.4469 30.5332 61.7167L25.6763 66.5149C25.4065 66.7847 25.0788 66.9774 24.6934 67.093C24.5777 67.093 24.4428 67.093 24.2886 67.093ZM22.6697 58.5371L22.554 58.5949L24.1152 65.0696L24.5199 66.1102L24.2886 65.1853L29.1455 60.3292V60.2136L29.0299 60.1558L22.6697 58.5371ZM17.0033 47.2063C16.772 47.2063 16.56 47.1293 16.3673 46.9751C16.1746 46.8209 16.0589 46.609 16.0204 46.3392C15.9818 46.0694 15.924 45.7611 15.8469 45.4142C15.6927 44.9903 15.7795 44.6338 16.1071 44.3448C16.4348 44.0557 16.7913 44.0075 17.1768 44.2002C17.5622 44.3929 17.755 44.7012 17.755 45.1252C17.7935 45.4335 17.8417 45.7418 17.8995 46.0501C17.9574 46.3585 17.8995 46.6282 17.7261 46.8595C17.5526 47.0907 17.3117 47.2063 17.0033 47.2063ZM16.4829 42.2925C16.2131 42.2925 15.9818 42.2058 15.7891 42.0324C15.5964 41.8589 15.5 41.6373 15.5 41.3675V40.9051C15.5 40.3655 15.5193 39.8452 15.5578 39.3442C15.6349 39.1129 15.7602 38.9299 15.9336 38.795C16.1071 38.6601 16.3095 38.6023 16.5408 38.6216C16.772 38.6408 16.9744 38.7179 17.1479 38.8528C17.3213 38.9877 17.4273 39.1708 17.4659 39.402V39.4598C17.4273 39.9223 17.4081 40.404 17.4081 40.9051V41.3675C17.4081 41.5988 17.3117 41.8107 17.119 42.0034C16.9262 42.1961 16.7142 42.2925 16.4829 42.2925ZM17.0033 36.4537C16.7335 36.4537 16.5022 36.3573 16.3095 36.1646C16.1167 35.9719 16.0204 35.7407 16.0204 35.4709L16.0782 35.2975C16.2324 34.4496 16.3866 33.7752 16.5408 33.2741C16.6564 33.0814 16.8202 32.9369 17.0322 32.8406C17.2442 32.7442 17.4562 32.7249 17.6683 32.7828C17.8803 32.8406 18.0537 32.9658 18.1886 33.1585C18.3235 33.3512 18.391 33.5632 18.391 33.7944L17.9284 35.6443C17.8899 35.8756 17.7839 36.0683 17.6104 36.2224C17.437 36.3766 17.2346 36.4537 17.0033 36.4537ZM18.7379 30.7883C18.391 30.7883 18.1308 30.6438 17.9574 30.3547C17.7839 30.0657 17.755 29.767 17.8706 29.4587C18.1019 28.765 18.391 28.1483 18.7379 27.6088C18.8921 27.4546 19.0752 27.3582 19.2872 27.3197C19.4992 27.2812 19.7016 27.3101 19.8943 27.4064C20.0871 27.5028 20.2316 27.6473 20.328 27.84C20.4243 28.0327 20.4532 28.2447 20.4147 28.4759L19.6052 30.2102C19.451 30.5956 19.1619 30.7883 18.7379 30.7883ZM21.6289 25.6432C21.2435 25.6047 20.9736 25.4216 20.8194 25.094C20.6653 24.7664 20.6749 24.4581 20.8484 24.1691C21.0218 23.88 21.3205 23.4657 21.7446 22.9261L22.0915 22.5215C22.2842 22.3673 22.4962 22.2902 22.7275 22.2902C22.9588 22.2902 23.1611 22.3673 23.3346 22.5215C23.5081 22.6756 23.6237 22.8683 23.6815 23.0996C23.7394 23.3308 23.7104 23.5428 23.5948 23.7355C23.1708 24.2365 22.7853 24.7375 22.4384 25.2385C22.2457 25.5083 21.9758 25.6432 21.6289 25.6432ZM64.7048 22.5793C64.435 22.5793 64.1941 22.4733 63.9821 22.2613C63.7701 22.0494 63.6062 21.9048 63.4906 21.8278C63.2208 21.5194 62.9317 21.2304 62.6233 20.9606C62.5077 20.7679 62.4595 20.5559 62.4787 20.3247C62.498 20.0935 62.5848 19.8911 62.7389 19.7177C62.8931 19.5443 63.0859 19.4479 63.3171 19.4286C63.5484 19.4094 63.7604 19.4575 63.9532 19.5732C64.2615 19.8429 64.5699 20.132 64.8783 20.4403L65.3987 20.9606C65.6685 21.2689 65.7263 21.6062 65.5721 21.9723C65.4179 22.3384 65.1288 22.5407 64.7048 22.5793ZM25.5607 21.2497C25.1367 21.2111 24.8476 20.9991 24.6934 20.6137C24.5392 20.2283 24.6163 19.8815 24.9247 19.5732C25.4258 19.0721 25.9269 18.6289 26.428 18.2435C26.6207 18.1279 26.8327 18.099 27.064 18.1568C27.2953 18.2146 27.488 18.3303 27.6422 18.5037C27.7964 18.6771 27.8735 18.8794 27.8735 19.1107C27.8735 19.3419 27.7964 19.5539 27.6422 19.7466L26.1967 20.9606C26.004 21.1148 25.792 21.1918 25.5607 21.1918V21.2497ZM60.1949 18.7638C60.0021 18.7638 59.8287 18.706 59.6745 18.5904L59.2697 18.3592C58.8843 18.0894 58.4795 17.8389 58.0555 17.6076C57.8628 17.4535 57.7471 17.2608 57.7086 17.0295C57.6701 16.7983 57.7086 16.5767 57.8242 16.3647C57.9399 16.1527 58.1133 16.0082 58.3446 15.9311C58.5759 15.8541 58.8072 15.8541 59.0385 15.9311L60.3683 16.7405L60.7731 17.0295C60.9272 17.1451 61.0332 17.2993 61.0911 17.492C61.1489 17.6847 61.1489 17.8774 61.0911 18.0701C61.0332 18.2628 60.9176 18.4266 60.7441 18.5615C60.5707 18.6964 60.3876 18.7638 60.1949 18.7638ZM30.3019 17.7232C30.1092 17.7232 29.9261 17.6558 29.7526 17.5209C29.5792 17.386 29.4732 17.2126 29.4346 17.0006C29.3961 16.7887 29.4153 16.5863 29.4924 16.3936C29.5695 16.2009 29.6852 16.0468 29.8394 15.9311C30.6103 15.4687 31.2078 15.1411 31.6318 14.9484C31.8631 14.9098 32.0751 14.9387 32.2678 15.0351C32.4605 15.1314 32.6051 15.2856 32.7015 15.4976C32.7978 15.7095 32.8267 15.9215 32.7882 16.1335C32.7496 16.3454 32.634 16.5285 32.4413 16.6827L30.7645 17.6076C30.6103 17.6847 30.4561 17.7232 30.3019 17.7232ZM54.9911 15.9889C54.8754 15.9889 54.7598 15.9697 54.6441 15.9311C54.3743 15.8155 53.9888 15.6614 53.4877 15.4687L52.8517 15.2374C52.659 15.2374 52.4759 15.17 52.3024 15.0351C52.129 14.9002 52.0133 14.7364 51.9555 14.5437C51.8977 14.351 51.8977 14.1583 51.9555 13.9656C52.0133 13.7729 52.129 13.6091 52.3024 13.4742C52.4759 13.3393 52.6686 13.2719 52.8806 13.2719C53.0926 13.2719 53.2757 13.3297 53.4299 13.4453C53.8539 13.5609 54.49 13.7729 55.338 14.0812C55.5693 14.1968 55.7427 14.3799 55.8584 14.6304C55.974 14.8809 55.974 15.1218 55.8584 15.353C55.7042 15.7384 55.4151 15.9504 54.9911 15.9889ZM35.6792 15.2952C35.4864 15.2567 35.313 15.1603 35.1588 15.0062C35.0046 14.852 34.9082 14.669 34.8697 14.457C34.8312 14.245 34.8601 14.0427 34.9564 13.85C35.0528 13.6573 35.1973 13.5224 35.3901 13.4453C35.737 13.3297 36.2767 13.1755 37.009 12.9828L37.356 12.8672C37.5872 12.8672 37.7896 12.9347 37.9631 13.0695C38.1365 13.2044 38.2522 13.3875 38.31 13.6187C38.3678 13.85 38.3485 14.0619 38.2522 14.2546C38.1558 14.4473 38.0113 14.6015 37.8185 14.7171L35.9683 15.2374C35.8912 15.276 35.7948 15.2952 35.6792 15.2952ZM49.3247 14.3703C49.2476 14.3703 49.1898 14.351 49.1512 14.3125C48.7658 14.2354 48.149 14.1583 47.301 14.0812C47.0312 14.0427 46.8095 13.9271 46.6361 13.7344C46.4626 13.5417 46.3855 13.3008 46.4048 13.0117C46.4241 12.7227 46.5397 12.4914 46.7517 12.318C46.9637 12.1446 47.2046 12.0771 47.4745 12.1157L49.4982 12.4047C49.7294 12.4818 49.9029 12.6167 50.0185 12.8094C50.1342 13.0021 50.1824 13.2141 50.1631 13.4453C50.1438 13.6765 50.0571 13.8692 49.9029 14.0234C49.7487 14.1776 49.556 14.2739 49.3247 14.3125V14.3703ZM41.4612 14.0812C41.1914 14.0812 40.9504 13.9945 40.7384 13.8211C40.5264 13.6476 40.4204 13.426 40.4204 13.1563C40.4204 12.8865 40.5072 12.6456 40.6806 12.4336C40.8541 12.2217 41.0757 12.1157 41.3455 12.1157C42.2707 12.0386 42.9645 12.0001 43.4271 12.0001C43.6969 12.0001 43.9282 12.0868 44.1209 12.2602C44.3136 12.4336 44.41 12.6552 44.41 12.925C44.41 13.1948 44.3233 13.426 44.1498 13.6187C43.9764 13.8114 43.7547 13.9078 43.4849 13.9078L42.8489 13.9656C42.2707 14.0041 41.8466 14.0427 41.5768 14.0812H41.4612ZM67.7693 26.4526C67.4224 26.4526 67.1622 26.3177 66.9887 26.0479C66.8153 25.7781 66.6514 25.5276 66.4972 25.2964C66.3431 25.0651 66.2949 24.8339 66.3527 24.6026C66.4105 24.3714 66.5358 24.1883 66.7285 24.0534C66.9213 23.9186 67.1429 23.8607 67.3934 23.88C67.644 23.8993 67.8464 23.986 68.0006 24.1402L68.5788 24.9495C68.7715 25.2578 68.7811 25.5854 68.6077 25.9323C68.4342 26.2791 68.1547 26.4526 67.7693 26.4526ZM59.8479 41.83H28.9721C28.7793 41.8686 28.5866 41.8589 28.3939 41.8011C28.2011 41.7433 28.0469 41.6277 27.9313 41.4543C27.8157 41.2808 27.7578 41.0881 27.7578 40.8762C27.7578 40.6642 27.8157 40.4715 27.9313 40.2981C28.0469 40.1246 28.2011 40.009 28.3939 39.9512C28.5866 39.8934 28.7793 39.8837 28.9721 39.9223H59.8479C60.0407 39.8837 60.2334 39.8934 60.4261 39.9512C60.6189 40.009 60.7731 40.1246 60.8887 40.2981C61.0043 40.4715 61.0622 40.6642 61.0622 40.8762C61.0622 41.0881 61.0043 41.2808 60.8887 41.4543C60.7731 41.6277 60.6189 41.7433 60.4261 41.8011C60.2334 41.8589 60.0407 41.8686 59.8479 41.83ZM44.41 57.2653C44.1402 57.2653 43.9089 57.1786 43.7162 57.0051C43.5234 56.8317 43.4271 56.6101 43.4271 56.3403V25.4698C43.4271 25.2 43.5234 24.9688 43.7162 24.7761C43.9089 24.5834 44.1402 24.487 44.41 24.487C44.6798 24.487 44.9111 24.5834 45.1038 24.7761C45.2966 24.9688 45.3929 25.2 45.3929 25.4698V56.3403C45.3929 56.6101 45.2966 56.8317 45.1038 57.0051C44.9111 57.1786 44.6798 57.2653 44.41 57.2653Z" fill="#02342C"/>
</svg>
