<svg width="259" height="85" viewBox="0 0 259 85" fill="none" xmlns="http://www.w3.org/2000/svg">
<g clip-path="url(#clip0_4447_1885)">
<mask id="mask0_4447_1885" style="mask-type:luminance" maskUnits="userSpaceOnUse" x="0" y="0" width="259" height="77">
<path d="M258.563 0.756897H0.173828V76.5984H258.563V0.756897Z" fill="white"/>
</mask>
<g mask="url(#mask0_4447_1885)">
<path d="M252.309 1.80982H5.44697C4.89314 1.80982 4.34474 1.91891 3.83309 2.13088C3.32143 2.34285 2.85655 2.65353 2.465 3.04519C2.07344 3.43684 1.76288 3.90179 1.55106 4.41348C1.33924 4.92517 1.2303 5.47358 1.23047 6.02738V71.3282C1.2303 71.882 1.33924 72.4304 1.55106 72.9421C1.76288 73.4538 2.07344 73.9187 2.465 74.3104C2.85655 74.7021 3.32143 75.0127 3.83309 75.2247C4.34474 75.4367 4.89314 75.5458 5.44697 75.5458H252.309C252.862 75.5461 253.411 75.4374 253.922 75.2258C254.434 75.0142 254.899 74.704 255.291 74.3127C255.683 73.9214 255.994 73.4568 256.206 72.9454C256.418 72.434 256.527 71.8858 256.528 71.3321V6.02738C256.528 5.47336 256.419 4.92475 256.207 4.41289C255.995 3.90103 255.684 3.43597 255.292 3.04428C254.901 2.65259 254.435 2.34196 253.923 2.13014C253.411 1.91833 252.863 1.80948 252.309 1.80982Z" stroke="white" stroke-width="2.57103"/>
<path d="M92.5822 20.6187C92.6237 21.2779 92.5326 21.9387 92.3142 22.562C92.0958 23.1853 91.7546 23.7585 91.3109 24.2477C90.524 25.0406 89.5191 25.5815 88.4239 25.8017C87.3288 26.0219 86.1929 25.9113 85.1607 25.484C84.1286 25.0568 83.2469 24.3322 82.6277 23.4024C82.0086 22.4726 81.68 21.3797 81.6838 20.2626C81.6778 19.5218 81.8194 18.7873 82.1003 18.1018C82.3812 17.4163 82.7958 16.7937 83.3199 16.2702C83.844 15.7466 84.4672 15.3327 85.153 15.0526C85.8388 14.7725 86.5735 14.6317 87.3142 14.6386C88.0753 14.6455 88.824 14.8318 89.4996 15.1823C90.1478 15.4529 90.7122 15.8913 91.1347 16.4524L90.2272 17.36C89.8831 16.9272 89.4383 16.5852 88.9317 16.3639C88.4251 16.1425 87.872 16.0484 87.3207 16.0899C86.7715 16.0668 86.2244 16.1692 85.7207 16.3892C85.2171 16.6093 84.7703 16.9413 84.4142 17.36C83.9776 17.7405 83.6355 18.2173 83.4149 18.7527C83.1942 19.2882 83.1011 19.8676 83.1428 20.4452C83.1011 21.0228 83.1942 21.6022 83.4149 22.1376C83.6355 22.673 83.9776 23.1498 84.4142 23.5303C85.2056 24.2792 86.2335 24.7284 87.3207 24.8004C87.8962 24.8243 88.47 24.7231 89.0026 24.5038C89.5352 24.2845 90.014 23.9524 90.4059 23.5303C90.6966 23.2476 90.9269 22.9088 91.0831 22.5345C91.2393 22.1603 91.3181 21.7583 91.3147 21.3527H87.3155V20.0826H92.5861L92.5822 20.6187Z" fill="white" stroke="white" stroke-width="0.257103" stroke-miterlimit="10"/>
<path d="M100.935 16.0835H96.0307V19.5248H100.574V20.7949H96.0307V24.2413H100.935V25.5114H94.5781V14.6322H100.935V16.0835Z" fill="white" stroke="white" stroke-width="0.257103" stroke-miterlimit="10"/>
<path d="M106.93 25.5164H105.476V15.9009H102.391V14.6308H110.019V15.9009H106.934L106.93 25.5164Z" fill="white" stroke="white" stroke-width="0.257103" stroke-miterlimit="10"/>
<path d="M115.285 25.5165V14.6322H116.738V25.5178L115.285 25.5165Z" fill="white" stroke="white" stroke-width="0.257103" stroke-miterlimit="10"/>
<path d="M122.917 25.5164H121.464V15.9009H118.379V14.6308H125.826V15.9009H122.741V25.5164H122.917Z" fill="white" stroke="white" stroke-width="0.257103" stroke-miterlimit="10"/>
<path d="M140.167 24.2476C139.38 25.0399 138.375 25.5803 137.28 25.8001C136.185 26.0199 135.049 25.9092 134.017 25.4821C132.986 25.0549 132.104 24.3306 131.485 23.4013C130.865 22.4719 130.537 21.3794 130.54 20.2626C130.528 19.5159 130.666 18.7745 130.944 18.0814C131.222 17.3883 131.635 16.7574 132.159 16.2254C132.683 15.6935 133.307 15.271 133.996 14.9826C134.685 14.6942 135.424 14.5457 136.171 14.5457C136.918 14.5457 137.657 14.6942 138.346 14.9826C139.034 15.271 139.659 15.6935 140.183 16.2254C140.707 16.7574 141.12 17.3883 141.398 18.0814C141.676 18.7745 141.813 19.5159 141.802 20.2626C141.805 21.0017 141.662 21.7341 141.381 22.4179C141.1 23.1016 140.688 23.7234 140.167 24.2476ZM133.265 23.3401C134.036 24.1191 135.076 24.5735 136.171 24.6101C136.721 24.6331 137.268 24.5307 137.771 24.3106C138.275 24.0906 138.722 23.7587 139.078 23.3401C139.893 22.5201 140.349 21.4108 140.348 20.2549C140.39 19.6774 140.297 19.098 140.077 18.5626C139.856 18.0272 139.514 17.5503 139.078 17.1697C138.307 16.3906 137.267 15.9362 136.171 15.8996C135.622 15.8766 135.075 15.979 134.572 16.1991C134.068 16.4192 133.621 16.7511 133.265 17.1697C132.45 17.9895 131.993 19.0988 131.994 20.2549C131.986 20.8283 132.095 21.3973 132.314 21.9275C132.532 22.4577 132.856 22.9382 133.265 23.3401Z" fill="white" stroke="white" stroke-width="0.257103" stroke-miterlimit="10"/>
<path d="M143.803 25.5165V14.6322H145.44L150.711 23.1589V14.6322H152.165V25.5178H150.711L145.081 16.6286V25.5178L143.803 25.5165Z" fill="white" stroke="white" stroke-width="0.257103" stroke-miterlimit="10"/>
<path d="M130.179 41.4814C129.148 41.4579 128.122 41.6435 127.165 42.0272C126.207 42.4108 125.337 42.9845 124.607 43.7135C123.878 44.4426 123.303 45.3119 122.918 46.2691C122.534 47.2263 122.347 48.2515 122.37 49.2828C122.363 50.3098 122.56 51.328 122.95 52.2781C123.34 53.2282 123.915 54.0913 124.642 54.8171C125.369 55.543 126.232 56.1171 127.183 56.506C128.134 56.895 129.152 57.0911 130.179 57.0829C132.248 57.0829 134.232 56.261 135.695 54.7981C137.158 53.3352 137.98 51.351 137.98 49.2821C137.98 47.2133 137.158 45.2291 135.695 43.7662C134.232 42.3033 132.248 41.4814 130.179 41.4814ZM130.179 53.8217C128.993 53.7277 127.885 53.19 127.077 52.3157C126.27 51.4415 125.821 50.295 125.821 49.1047C125.821 47.9145 126.27 46.768 127.077 45.8938C127.885 45.0195 128.993 44.4818 130.179 44.3878C130.781 44.3913 131.376 44.5185 131.927 44.7614C132.478 45.0043 132.974 45.3579 133.382 45.8001C133.791 46.2423 134.104 46.7637 134.303 47.3321C134.502 47.9004 134.582 48.5036 134.538 49.1041C134.582 49.7043 134.501 50.3071 134.302 50.875C134.103 51.4429 133.789 51.9638 133.381 52.4056C132.972 52.8474 132.477 53.2006 131.926 53.4433C131.376 53.686 130.781 53.813 130.179 53.8166V53.8217ZM113.287 41.4814C112.256 41.4579 111.231 41.6435 110.273 42.0272C109.315 42.4108 108.446 42.9845 107.716 43.7135C106.986 44.4426 106.411 45.3119 106.027 46.2691C105.642 47.2263 105.455 48.2515 105.478 49.2828C105.471 50.3098 105.668 51.328 106.058 52.2781C106.448 53.2282 107.024 54.0913 107.75 54.8171C108.477 55.543 109.341 56.1171 110.291 56.506C111.242 56.895 112.26 57.0911 113.287 57.0829C115.356 57.0829 117.341 56.261 118.804 54.7981C120.267 53.3352 121.089 51.351 121.089 49.2821C121.089 47.2133 120.267 45.2291 118.804 43.7662C117.341 42.3033 115.356 41.4814 113.287 41.4814ZM113.287 53.8217C112.101 53.7277 110.993 53.19 110.186 52.3157C109.378 51.4415 108.929 50.295 108.929 49.1047C108.929 47.9145 109.378 46.768 110.186 45.8938C110.993 45.0195 112.101 44.4818 113.287 44.3878C113.89 44.3913 114.485 44.5185 115.036 44.7614C115.587 45.0043 116.082 45.3578 116.491 45.8C116.9 46.2422 117.213 46.7636 117.412 47.332C117.611 47.9003 117.692 48.5035 117.648 49.1041C117.691 49.7044 117.61 50.3072 117.411 50.8751C117.212 51.443 116.898 51.9639 116.489 52.4057C116.081 52.8474 115.586 53.2006 115.035 53.4433C114.484 53.686 113.889 53.813 113.287 53.8166V53.8217ZM93.1203 43.8389V47.1039H100.936C100.823 48.6606 100.182 50.1321 99.1198 51.2752C98.3366 52.061 97.3993 52.6764 96.3668 53.0825C95.3343 53.4887 94.229 53.6769 93.1203 53.6353C91.9813 53.6475 90.8516 53.4292 89.7991 52.9937C88.7465 52.5582 87.7929 51.9145 86.9955 51.1012C86.1981 50.2878 85.5733 49.3217 85.1588 48.2608C84.7442 47.1999 84.5484 46.0662 84.5831 44.9277C84.5639 43.7932 84.7703 42.6663 85.1904 41.6123C85.6105 40.5584 86.2358 39.5984 87.0302 38.7882C87.8245 37.978 88.7719 37.3337 89.8174 36.8929C90.8629 36.452 91.9856 36.2233 93.1203 36.22C95.3408 36.2409 97.4754 37.0809 99.1146 38.5788L101.476 36.22C99.2836 34.1046 96.3495 32.9325 93.3028 32.955C90.1148 32.974 87.0599 34.2353 84.7873 36.4711C82.5148 38.7068 81.2037 41.7406 81.1328 44.9277C81.2037 48.1148 82.5148 51.1486 84.7873 53.3843C87.0599 55.62 90.1148 56.8814 93.3028 56.9004C94.8647 56.9873 96.4262 56.7228 97.8723 56.1264C99.3184 55.53 100.612 54.6168 101.659 53.4541C103.576 51.3854 104.617 48.655 104.565 45.8352C104.604 45.1649 104.543 44.4926 104.384 43.8402L93.1203 43.8389ZM175.582 46.379C175.135 44.9849 174.266 43.7645 173.094 42.8867C171.922 42.009 170.506 41.5174 169.043 41.4801C165.048 41.4801 161.778 44.5652 161.778 49.2815C161.751 50.2988 161.928 51.3112 162.3 52.2586C162.671 53.206 163.229 54.0691 163.941 54.7967C164.652 55.5242 165.503 56.1014 166.442 56.4939C167.381 56.8864 168.389 57.0863 169.407 57.0816C170.672 57.0936 171.919 56.7835 173.031 56.1806C174.143 55.5777 175.083 54.7018 175.764 53.6353L173.221 51.8215C172.829 52.4848 172.272 53.0345 171.603 53.4164C170.934 53.7983 170.177 53.9991 169.407 53.9991C168.606 54.0403 167.812 53.8366 167.131 53.4152C166.449 52.9937 165.912 52.3746 165.591 51.6403L175.945 47.2865L175.582 46.379ZM165.048 48.919C165.011 47.7964 165.403 46.702 166.146 45.8592C166.888 45.0164 167.925 44.4888 169.043 44.3839C169.63 44.3643 170.212 44.506 170.724 44.7939C171.237 45.0817 171.661 45.5046 171.949 46.0165L165.048 48.919ZM156.51 56.3566H159.967V33.68H156.517L156.51 56.3566ZM151.061 43.1165C149.962 41.9847 148.461 41.3328 146.883 41.3027C144.876 41.3934 142.981 42.2552 141.594 43.7083C140.207 45.1614 139.434 47.0938 139.436 49.1028C139.423 50.0926 139.605 51.0754 139.972 51.9947C140.339 52.9139 140.885 53.7516 141.577 54.4595C142.269 55.1674 143.094 55.7317 144.004 56.1199C144.915 56.5081 145.893 56.7126 146.883 56.7217C147.641 56.7277 148.391 56.5685 149.081 56.2553C149.772 55.9421 150.385 55.4823 150.88 54.9079H151.061V55.9967C151.061 58.8992 149.427 60.5318 146.883 60.5318C146.043 60.5315 145.224 60.2692 144.541 59.7814C143.857 59.2935 143.343 58.6046 143.069 57.8105L140.162 59.0805C140.742 60.4294 141.706 61.5783 142.933 62.3846C144.16 63.1908 145.597 63.6188 147.066 63.6155C151.061 63.6155 154.331 61.2568 154.331 55.6342V41.8439H151.061V43.1165ZM147.066 53.8191C145.879 53.7251 144.772 53.1874 143.964 52.3132C143.156 51.4389 142.707 50.2924 142.707 49.1022C142.707 47.9119 143.156 46.7654 143.964 45.8912C144.772 45.0169 145.879 44.4792 147.066 44.3852C147.654 44.4093 148.231 44.5518 148.762 44.8042C149.293 45.0566 149.769 45.4137 150.159 45.8541C150.549 46.2945 150.846 46.8091 151.032 47.3672C151.219 47.9252 151.291 48.5151 151.244 49.1015C151.291 49.6874 151.219 50.2766 151.033 50.8341C150.846 51.3915 150.55 51.9057 150.16 52.3459C149.771 52.7861 149.297 53.1432 148.766 53.3959C148.235 53.6486 147.659 53.7916 147.072 53.8166L147.066 53.8191ZM191.384 33.6826H183.211V56.3566H186.661V47.8302H191.384C192.343 47.8786 193.302 47.7315 194.203 47.3978C195.103 47.064 195.927 46.5507 196.623 45.889C197.319 45.2272 197.873 44.4309 198.251 43.5483C198.63 42.6658 198.825 41.7155 198.825 40.7551C198.825 39.7948 198.63 38.8444 198.251 37.9619C197.873 37.0793 197.319 36.283 196.623 35.6212C195.927 34.9595 195.103 34.4462 194.203 34.1125C193.302 33.7787 192.343 33.6316 191.384 33.68V33.6826ZM191.565 44.749H186.667V36.945H191.572C192.601 36.9411 193.592 37.3355 194.337 38.0457C195.082 38.7559 195.523 39.7268 195.568 40.7551C195.498 41.7914 195.054 42.7671 194.319 43.5011C193.584 44.2351 192.608 44.6775 191.572 44.7464L191.565 44.749ZM212.454 41.484C211.223 41.385 209.992 41.6614 208.921 42.2767C207.851 42.892 206.993 43.8172 206.459 44.9302L209.544 46.2003C209.847 45.6599 210.299 45.2183 210.846 44.9287C211.393 44.639 212.013 44.5137 212.63 44.5678C213.49 44.5025 214.343 44.7657 215.017 45.3043C215.691 45.8429 216.136 46.6168 216.263 47.4703V47.6515C215.206 47.0646 214.019 46.7525 212.811 46.744C209.542 46.744 206.273 48.5578 206.273 51.8228C206.303 52.5279 206.474 53.2199 206.774 53.8584C207.075 54.4969 207.5 55.0692 208.024 55.5419C208.548 56.0147 209.161 56.3783 209.827 56.6118C210.493 56.8452 211.199 56.9438 211.903 56.9016C212.754 56.93 213.598 56.7457 214.359 56.3654C215.12 55.9852 215.774 55.421 216.263 54.7241H216.444V56.5379H219.713V47.8302C219.358 43.6577 216.273 41.4814 212.46 41.4814L212.454 41.484ZM212.09 53.8243C211.001 53.8243 209.366 53.2805 209.366 51.8293C209.366 50.0155 211.363 49.4705 212.999 49.4705C214.069 49.4747 215.124 49.7231 216.084 50.1967C215.943 51.1694 215.468 52.0628 214.741 52.7234C214.013 53.384 213.078 53.7705 212.096 53.8166L212.09 53.8243ZM231.162 41.8516L227.348 51.648H227.166L223.17 41.8516H219.537L225.531 55.6393L222.08 63.2582H225.531L234.795 41.8516H231.162ZM200.654 56.3566H204.104V33.68H200.654V56.3566Z" fill="white"/>
<path d="M24.4717 60.8908C24.1103 60.6601 23.8181 60.3358 23.6262 59.9524C23.4342 59.569 23.3497 59.1408 23.3816 58.7133V17.8971C23.4141 17.219 23.536 16.5483 23.7441 15.9021C23.9915 15.4963 24.2978 15.1294 24.6529 14.8134C32.4597 22.6095 40.0879 30.4146 47.716 38.2146C39.9066 45.4708 32.2772 53.0908 24.4717 60.8908Z" fill="white"/>
<path d="M55.3432 30.2342C53.1579 32.4118 50.8028 34.5882 48.6226 36.9471C41.357 29.5092 33.9101 22.0713 26.6407 14.6334C26.6401 14.6095 26.6445 14.5857 26.6534 14.5635C26.6623 14.5412 26.6756 14.521 26.6926 14.5041C26.7095 14.4872 26.7297 14.4738 26.7519 14.4649C26.7742 14.456 26.798 14.4517 26.8219 14.4522C36.2716 19.7112 45.7174 24.9727 55.3432 30.2342Z" fill="white"/>
<path d="M26.6445 60.8925C33.9102 53.6359 41.357 46.3792 48.6265 39.1226C50.6242 41.1177 52.8044 43.1077 55.1658 45.293C45.7161 50.552 36.2703 55.8135 26.8258 60.8925H26.6445Z" fill="white"/>
<path d="M56.4364 44.5655C54.0762 42.3879 51.896 40.2116 49.541 38.0352L56.6241 30.965C57.3905 31.3193 58.1222 31.7445 58.8094 32.2351C60.6258 33.3239 62.6235 34.2302 64.4399 35.3203C64.9787 35.5221 65.429 35.9077 65.7113 36.4091C66.0609 36.7758 66.2559 37.2631 66.2559 37.7698C66.2559 38.2765 66.0609 38.7637 65.7113 39.1305C65.3674 39.5316 64.931 39.8431 64.4399 40.038C61.8818 41.6629 59.1617 43.1142 56.4364 44.5655Z" fill="white"/>
</g>
</g>
<defs>
<clipPath id="clip0_4447_1885">
<rect width="258.404" height="83.5936" fill="white" transform="translate(0.167969 0.756897)"/>
</clipPath>
</defs>
</svg>
